<?xml version="1.0" encoding="utf-8"?>
<!-- Generator: Adobe Illustrator 16.0.3, SVG Export Plug-In . SVG Version: 6.00 Build 0)  -->
<!DOCTYPE svg PUBLIC "-//W3C//DTD SVG 1.1//EN" "http://www.w3.org/Graphics/SVG/1.1/DTD/svg11.dtd">
<svg version="1.1" id="Layer_1" xmlns="http://www.w3.org/2000/svg" xmlns:xlink="http://www.w3.org/1999/xlink" x="0px" y="0px"
	 width="400px" height="5900px" viewBox="300.5 -2450 400 5900" enable-background="new 300.5 -2450 400 5900" xml:space="preserve"
	>
<path fill="#F26727" d="M-261.215-2283.081c0,2.454,0,4.908,0.614,7.362c0,0.613,0,1.841,0.613,2.454
	c0,1.841,0.613,3.067,0.613,4.908c0,1.227,0.613,1.84,0.613,3.067c0.614,1.227,0.614,2.454,1.228,4.294
	c0.613,1.228,0.613,1.841,1.227,3.068c0.613,1.227,0.613,2.453,1.228,3.681c0.613,1.227,1.227,2.454,1.227,3.067
	c0.613,1.227,1.228,1.841,1.228,3.067c0.613,1.228,1.227,2.454,1.84,3.681c0.613,0.614,1.228,1.841,1.841,2.454
	c0.613,1.228,1.227,2.454,2.454,3.682c0.613,0.613,1.227,1.227,1.227,1.84c1.228,1.228,1.841,2.454,3.067,3.682
	c0,0.613,0.614,0.613,0.614,1.227c11.656,13.497,27.606,22.699,46.012,25.153l0,0v120.859l0,0
	c-18.405,3.067-34.355,12.27-46.012,25.153c0,0.613-0.614,0.613-0.614,1.227c-1.227,1.228-1.84,2.454-3.067,3.681
	c-0.613,0.614-1.227,1.228-1.227,1.841c-0.613,1.228-1.841,2.454-2.454,3.681c-0.613,0.614-1.228,1.841-1.841,2.454
	c-0.613,1.228-1.227,2.454-1.84,3.682c-0.614,1.227-1.228,1.84-1.228,3.067c-0.613,1.227-1.227,2.454-1.227,3.067
	c-0.614,1.227-0.614,2.454-1.228,3.681c-0.613,1.228-0.613,1.841-1.227,3.067c-0.613,1.228-0.613,2.454-1.228,4.295
	c0,1.227-0.613,1.841-0.613,3.067c-0.613,1.227-0.613,3.067-1.227,4.295c0,0.613,0,1.84-0.614,2.453
	c0,2.454-0.613,4.908-0.613,7.362s0,4.908,0.613,7.362c0,0.613,0,1.84,0.614,2.454c0,1.84,0.613,3.067,0.613,4.907
	c0,1.228,0.613,1.841,0.613,3.067c0.613,1.228,0.613,2.454,1.228,4.295c0.613,1.227,0.613,1.841,1.227,3.067
	s0.613,2.454,1.227,3.681c0.614,1.228,1.228,2.454,1.841,3.682c0.613,1.227,1.228,1.84,1.228,3.067
	c0.613,1.227,1.227,2.454,1.84,3.681c0.613,0.613,1.228,1.841,1.841,2.454c0.613,1.227,1.227,2.454,2.454,3.681
	c0.613,0.614,1.227,1.228,1.227,1.841c1.228,1.227,1.841,2.454,3.067,3.681c0,0.614,0.614,0.614,0.614,1.228
	c11.656,13.497,27.606,22.699,46.012,25.153l0,0v120.245l0,0c-18.405,3.067-34.355,12.271-46.012,25.153
	c0,0.613-0.614,0.613-0.614,1.228c-1.227,1.227-1.84,2.453-3.067,3.681c-0.613,0.613-1.227,1.227-1.227,1.841
	c-0.613,1.227-1.841,2.453-2.454,3.681c-0.613,0.613-1.228,1.841-1.841,2.454c-0.613,1.227-1.227,2.454-1.84,3.681
	c-0.614,1.228-1.228,1.841-1.228,3.067c-0.613,1.228-1.227,2.454-1.227,3.067c-0.614,1.228-0.614,2.454-1.228,3.682
	c-0.613,1.227-0.613,1.84-1.227,3.067c-0.613,1.227-0.613,2.454-1.228,4.294c0,1.228-0.613,1.841-0.613,3.067
	c-0.613,1.841-0.613,3.068-1.227,4.908c0,0.613,0,1.841-0.614,2.454c0,2.454-0.613,4.908-0.613,7.362s0,4.908,0.613,7.361
	c0,0.614,0,1.841,0.614,2.454c0.613,1.841,0.613,3.682,1.227,5.521c0,1.228,0.613,1.841,0.613,3.067
	c0.614,1.228,0.614,2.454,1.228,4.295c0.613,1.227,0.613,1.841,1.227,3.067c0.613,1.228,0.613,2.454,1.228,3.681
	c0.613,1.228,1.227,2.454,1.227,3.067c0.613,1.228,1.228,1.841,1.228,3.068c0.613,1.227,1.227,2.453,1.84,3.681
	c0.613,0.613,1.228,1.84,1.841,2.454c0.613,1.227,1.227,2.454,2.454,3.681c0.613,0.613,1.227,1.227,1.227,1.841
	c1.228,1.227,1.841,2.454,3.067,3.681c0,0.613,0.614,0.613,0.614,1.227c11.656,13.497,27.606,22.699,46.012,25.153l0,0v120.246l0,0
	c-18.405,3.067-34.355,12.27-46.012,25.153c0,0.613-0.614,0.613-0.614,1.227c-1.227,1.228-1.84,2.454-3.067,3.681
	c-0.613,0.614-1.227,1.228-1.227,1.841c-0.613,1.228-1.841,2.454-2.454,3.681c-0.613,0.614-1.228,1.841-1.841,2.454
	c-0.613,1.228-1.227,2.454-1.84,3.682c-0.614,0.613-1.228,1.84-1.228,3.067c-0.613,1.227-1.227,2.454-1.227,3.067
	c-0.614,1.227-0.614,2.454-1.228,3.681c-0.613,1.228-0.613,1.841-1.227,3.067c-0.613,1.228-0.613,2.454-1.228,4.295
	c0,1.227-0.613,1.84-0.613,3.067c-0.613,1.227-0.613,3.067-1.227,4.908c0,0.613,0,1.84-0.614,2.454c0,2.453-0.613,4.907-0.613,7.361
	c0,42.945,34.97,77.914,77.914,77.914c42.945,0,77.914-34.969,77.914-77.914c0-2.454,0-4.908-0.613-7.361
	c0-0.614,0-1.841-0.613-2.454c0-1.841-0.613-3.067-0.613-4.908c0-1.228-0.614-1.841-0.614-3.067
	c-0.613-1.228-0.613-2.454-1.227-4.295c-0.613-1.227-0.613-1.84-1.228-3.067c-0.613-1.227-0.613-2.454-1.227-3.681
	c-0.613-1.228-1.227-2.454-1.227-3.067c-0.614-1.228-1.228-1.841-1.228-3.067c-0.613-1.228-1.227-2.454-1.84-3.682
	c-0.614-0.613-1.228-1.84-1.841-2.454c-0.613-1.227-1.228-2.453-2.454-3.681c-0.613-0.613-1.227-1.227-1.227-1.841
	c-1.228-1.227-1.841-2.453-3.068-3.681c0-0.613-0.613-0.613-0.613-1.227c-11.656-13.497-27.607-22.699-46.012-25.153l0,0v-120.859
	l0,0c18.404-3.067,34.355-12.27,46.012-25.153c0-0.613,0.613-0.613,0.613-1.227c1.228-1.228,1.841-2.454,3.068-3.682
	c0.613-0.613,1.227-1.227,1.227-1.84c0.613-1.228,1.841-2.454,2.454-3.681c0.613-0.614,1.227-1.841,1.841-2.454
	c0.613-1.228,1.227-2.454,1.84-3.682c0.613-1.227,1.228-1.84,1.228-3.067c0.613-1.227,1.227-2.454,1.227-3.067
	c0.613-1.227,0.613-2.454,1.227-3.681c0.614-1.228,0.614-1.841,1.228-3.067c0.613-1.228,0.613-2.454,1.227-4.295
	c0-1.227,0.614-1.84,0.614-3.067c0.613-1.841,0.613-3.067,0.613-4.908c0-0.613,0-1.84,0.613-2.454c0-2.453,0.613-4.907,0.613-7.361
	s0-4.908-0.613-7.362c0-0.613,0-1.841-0.613-2.454c0-1.84-0.613-3.067-0.613-4.908c0-1.227-0.614-1.84-0.614-3.067
	c-0.613-1.227-0.613-2.454-1.227-4.294c-0.613-1.228-0.613-1.841-1.228-3.067c-0.613-1.228-0.613-2.454-1.227-3.682
	c-0.613-1.227-1.227-2.454-1.227-3.067c-0.614-1.227-1.228-1.84-1.228-3.067c-0.613-1.227-1.227-2.454-1.84-3.681
	c-0.614-0.613-1.228-1.841-1.841-2.454c-0.613-1.228-1.228-2.454-2.454-3.681c-0.613-0.614-1.227-1.228-1.227-1.841
	c-1.228-1.228-1.841-2.454-3.068-3.681c0-0.614-0.613-0.614-0.613-1.228c-11.656-13.497-27.607-22.699-46.012-25.153l0,0v-120.858
	l0,0c18.404-3.067,34.355-12.271,46.012-25.153c0-0.614,0.613-0.614,0.613-1.228c1.228-1.227,1.841-2.454,3.068-3.681
	c0.613-0.613,1.227-1.227,1.227-1.841c0.613-1.227,1.841-2.454,2.454-3.681c0.613-0.613,1.227-1.841,1.841-2.454
	c0.613-1.227,1.227-2.454,1.84-3.681c0.613-1.228,1.228-1.841,1.228-3.067c0.613-1.228,1.227-2.454,1.227-3.067
	c0.613-1.228,0.613-2.454,1.227-3.682c0.614-1.227,0.614-1.84,1.228-3.067c0.613-1.227,0.613-2.454,1.227-4.294
	c0-1.228,0.614-1.841,0.614-3.068c0.613-1.84,0.613-3.067,0.613-4.907c0-0.614,0-1.841,0.613-2.454c0-2.454,0.613-4.908,0.613-7.362
	s0-4.908-0.613-7.362c0-0.613,0-1.84-0.613-2.453c0-1.841-0.613-3.068-0.613-4.908c0-1.228-0.614-1.841-0.614-3.067
	c-0.613-1.228-0.613-2.454-1.227-4.295c-0.613-1.227-0.613-1.841-1.228-3.067c-0.613-1.227-0.613-2.454-1.227-3.681
	c-0.613-1.228-1.227-2.454-1.227-3.067c-0.614-1.228-1.228-1.841-1.228-3.067c-0.613-1.228-1.227-2.454-1.84-3.682
	c-0.614-0.613-1.228-1.84-1.841-2.454c-0.613-1.227-1.228-2.454-2.454-3.681c-0.613-0.613-1.227-1.227-1.227-1.841
	c-1.228-1.227-1.841-2.454-3.068-3.681c0-0.613-0.613-0.613-0.613-1.227c-11.656-13.497-27.607-22.7-46.012-25.153l0,0v-120.246l0,0
	c18.404-3.067,34.355-12.27,46.012-25.153c0-0.613,0.613-0.613,0.613-1.227c1.228-1.228,1.841-2.454,3.068-3.682
	c0.613-0.613,1.227-1.227,1.227-1.84c0.613-1.228,1.841-2.454,2.454-3.682c0.613-0.613,1.227-1.841,1.841-2.454
	c0.613-1.227,1.227-2.453,1.84-3.681c0.613-1.227,1.228-1.841,1.228-3.067c0.613-1.227,1.227-2.454,1.227-3.067
	c0.613-1.228,0.613-2.454,1.227-3.681c0.614-1.228,0.614-1.841,1.228-3.068c0.613-1.227,0.613-2.453,1.227-4.294
	c0-1.228,0.614-1.841,0.614-3.067c0.613-1.841,0.613-3.067,0.613-4.908c0-0.613,0-1.841,0.613-2.454
	c0-2.454,0.613-4.908,0.613-7.362c0-42.944-34.969-77.914-77.914-77.914C-226.858-2360.995-261.215-2326.025-261.215-2283.081z"/>
<g>
	<path fill="#FCB860" d="M-611.674-1550.05c-0.613,0-1.84,0.613-2.454,0.613c-0.613,0-1.84,0.613-2.453,1.227
		c-0.614,0.614-1.841,0.614-2.454,1.228c-0.614,0.613-1.841,0.613-2.454,1.227s-1.841,0.613-2.454,1.228
		c-0.613,0.613-1.228,0.613-2.454,1.227c-0.613,0.613-1.227,1.228-2.454,1.228c-0.613,0.613-1.227,1.227-2.454,1.84
		c-0.613,0.613-1.227,1.228-1.84,1.841c-0.614,0.613-1.228,1.227-2.454,1.841c-0.614,0.613-1.228,1.227-1.841,1.84
		s-1.841,1.841-2.454,2.454s-0.613,0.613-1.227,1.228c-1.228,1.227-2.454,2.453-3.067,4.294c-0.614,0.613-0.614,1.228-1.228,1.841
		c-0.613,1.227-1.227,1.84-1.84,3.067c0.613,0.613,0,1.227,0,1.841c-0.614,1.227-1.228,1.84-1.228,3.067
		c0,0.613-0.613,1.227-0.613,1.84c-0.613,1.228-0.613,1.841-1.228,3.067c0,0.614-0.613,1.228-0.613,2.454
		c-0.613,1.228-0.613,2.454-0.613,3.067c-1.227,0.614-1.227,1.228-1.227,2.454c0,1.228-0.614,2.454-0.614,3.682
		c0,0.613,0,1.227,0,1.84c0,1.841,0,3.682,0,5.521c0,32.516,26.381,59.51,59.51,59.51s59.509-26.381,59.509-59.51
		c0-1.84,0-3.681,0-5.521c0-0.613,0-1.227,0-1.84c0-1.228-0.613-2.454-0.613-3.682c0-0.613-0.613-1.227-0.613-1.84
		c0-1.228-0.614-2.454-0.614-3.067c0-0.614-0.613-1.228-0.613-2.454c-0.613-1.228-0.613-1.841-1.227-3.067
		c0-0.614-0.613-1.228-0.613-1.841c-0.614-1.228-0.614-1.841-1.228-3.067c-0.613-0.613-0.613-1.228-1.227-1.841
		c-0.614-1.227-1.228-1.841-1.841-3.067c-0.613-0.613-0.613-1.227-1.227-1.841c-1.228-1.227-1.841-3.067-3.068-4.294
		c-0.613-0.613-0.613-0.613-1.227-1.228c-0.613-0.613-1.841-1.84-2.454-2.454c-0.613-0.613-1.227-1.227-1.841-1.84
		c-0.613-0.613-1.227-1.228-2.453-1.841c-0.614-0.613-1.228-1.227-1.841-1.841c-0.613-0.613-1.227-1.227-2.454-1.84
		c-0.613-0.613-1.227-1.228-2.454-1.228c-0.613-0.613-1.227-1.227-2.454-1.227c-0.613-0.613-1.84-0.613-2.454-1.228
		c-0.613-0.613-1.84-0.613-2.453-1.227c-0.614-0.613-1.841-0.613-2.454-1.227c-0.614-0.614-1.841-0.614-2.454-1.228
		c-0.613,0-1.841-0.613-2.454-0.613c-1.841-0.613-3.067-1.228-4.908-1.228c-3.681-0.613-7.976-1.227-12.27-1.227
		c-4.295,0-8.589,0.613-12.271,1.227C-608.606-1550.664-609.833-1550.05-611.674-1550.05z"/>
	<path fill="#FCB860" d="M-611.674-1823.67c-0.613,0-1.84,0.614-2.454,0.614c-0.613,0-1.84,0.613-2.453,1.227
		c-0.614,0.613-1.841,0.613-2.454,1.227c-0.614,0.614-1.841,0.614-2.454,1.228s-1.841,0.613-2.454,1.227
		c-0.613,0.614-1.228,0.614-2.454,1.228c-0.613,0.613-1.227,1.227-2.454,1.227c-0.613,0.613-1.227,1.228-2.454,1.841
		c-0.613,0.613-1.227,1.227-1.84,1.841c-0.614,0.613-1.228,1.227-2.454,1.84c-0.614,0.613-1.228,1.228-1.841,1.841
		s-1.841,1.841-2.454,2.454s-0.613,0.613-1.227,1.227c-1.228,1.228-2.454,2.454-3.067,4.295c-0.614,0.613-0.614,1.227-1.228,1.84
		c-0.613,1.228-1.227,1.841-1.84,3.068c-0.614,0.613-0.614,1.227-1.228,1.84c-0.613,1.228-1.227,1.841-1.227,3.067
		c0,0.614-0.614,1.228-0.614,1.841c-0.613,1.227-0.613,1.841-1.227,3.067c0,0.613-0.613,1.228-0.613,2.454
		c-0.613,1.227-0.613,2.454-0.613,3.067s0,1.228,0,1.841c0,1.227-0.614,2.454-0.614,3.681c0,0.613,0,1.228,0,1.841
		c0,1.84,0,3.681,0,5.521c0,1.84,0,3.681,0,5.521c0,0.613,0,1.227,0,1.84c0,1.228,0.614,2.454,0.614,3.682
		c0,1.227,0,1.84,0.613,2.454c0,1.227,0.613,2.454,0.613,3.067s0.613,1.227,0.613,2.454c0.613,1.227,0.613,1.84,1.228,3.067
		c0,0.613,0.613,1.227,0.613,1.84c0.613,1.228,0.613,1.841,1.227,3.068c0.614,0.613,0.614,1.227,1.228,1.84
		c0.613,1.228,1.227,1.841,1.84,3.067c0.614,0.613,0.614,1.228,1.228,1.841c1.227,1.227,1.84,3.067,3.067,4.294
		c0.613,0.614,0.613,0.614,1.227,1.228c0.614,0.613,1.841,1.841,2.454,2.454s1.228,1.227,1.841,1.84
		c0.613,0.614,1.227,1.228,2.454,1.841c0.613,0.613,1.227,1.228,1.84,1.841c0.614,0.613,1.228,1.227,2.454,1.84
		c0.614,0.614,1.228,1.228,2.454,1.228c0.613,0.613,1.228,1.227,2.454,1.227c0.613,0.613,1.841,0.613,2.454,1.228
		c0.613,0.613,1.841,0.613,2.454,1.227s1.841,0.613,2.454,1.228c0.613,0.613,1.84,0.613,2.454,1.227c0.613,0,1.84,0.613,2.453,0.613
		c1.841,0.614,3.068,1.228,4.908,1.228c3.682,0.613,7.976,1.227,12.271,1.227c4.294,0,8.589-0.613,12.27-1.227
		c1.841-0.613,3.067-0.613,4.908-1.228c0.613,0,1.841-0.613,2.454-0.613s1.84-0.613,2.454-1.227c0.613-0.614,1.84-0.614,2.454-1.228
		c0.613-0.613,1.84-0.613,2.453-1.227c0.614-0.613,1.841-0.613,2.454-1.228c0.614-0.613,1.228-0.613,2.454-1.227
		c0.613-0.613,1.228-1.228,2.454-1.228c0.613-0.613,1.227-1.227,2.454-1.84c0.613-0.613,1.227-1.228,1.841-1.841
		c0.613-0.613,1.227-1.227,2.453-1.841c0.614-0.613,1.228-1.227,1.841-1.84s1.841-1.841,2.454-2.454s0.613-0.613,1.227-1.228
		c1.228-1.227,2.454-2.453,3.068-4.294c0.613-0.613,0.613-1.228,1.227-1.841c0.613-1.227,1.227-1.84,1.841-3.067
		c0.613-0.613,0.613-1.227,1.227-1.84c0.613-1.228,1.228-1.841,1.228-3.068c0-0.613,0.613-1.227,0.613-1.84
		c0.613-1.228,0.613-1.841,1.227-3.067c0-0.614,0.613-1.228,0.613-2.454c0.614-1.228,0.614-2.454,0.614-3.067
		c0-0.614,0.613-1.228,0.613-1.841c0-1.227,0.613-2.454,0.613-3.681c0-0.614,0-1.228,0-1.841c0-1.841,0-3.681,0-5.521
		s0-3.681,0-5.521c0-0.613,0-1.227,0-1.841c0-1.227-0.613-2.454-0.613-3.681c0-0.613-0.613-1.227-0.613-1.841
		c0-1.227-0.614-2.454-0.614-3.067s-0.613-1.227-0.613-2.454c-0.613-1.227-0.613-1.84-1.227-3.067c0-0.613-0.613-1.227-0.613-1.84
		c-0.614-1.228-0.614-1.841-1.228-3.068c-0.613-0.613-0.613-1.227-1.227-1.84c-0.614-1.228-1.228-1.841-1.841-3.067
		c-0.613-0.614-0.613-1.228-1.227-1.841c-1.228-1.227-1.841-3.067-3.068-4.295c-0.613-0.613-0.613-0.613-1.227-1.227
		s-1.841-1.841-2.454-2.454s-1.227-1.227-1.841-1.841c-0.613-0.613-1.227-1.227-2.453-1.84c-0.614-0.613-1.228-1.228-1.841-1.841
		s-1.228-1.227-2.454-1.841c-0.613-0.613-1.227-1.227-2.454-1.227c-0.613-0.613-1.227-1.227-2.454-1.227
		c-0.613-0.614-1.84-0.614-2.454-1.228c-0.613-0.613-1.84-0.613-2.453-1.227c-0.614-0.613-1.841-0.613-2.454-1.228
		c-0.614-0.613-1.841-0.613-2.454-1.227c-0.613,0-1.841-0.613-2.454-0.613c-1.841-0.613-3.067-1.228-4.908-1.228
		c-3.681-0.613-7.976-1.227-12.27-1.227c-4.295,0-8.589,0.613-12.271,1.227C-608.606-1824.896-609.833-1824.283-611.674-1823.67z"/>
	<path fill="#FCB860" d="M-611.674-2097.902c-0.613,0-1.84,0.613-2.454,0.613c-0.613,0-1.84,0.613-2.453,1.227
		c-0.614,0.614-1.841,0.614-2.454,1.228c-0.614,0.613-1.841,0.613-2.454,1.227s-1.841,0.613-2.454,1.228
		c-0.613,0.613-1.228,0.613-2.454,1.227c-0.613,0.613-1.227,1.228-2.454,1.228c-0.613,0.613-1.227,1.227-2.454,1.84
		c-0.613,0.613-1.227,1.228-1.84,1.841c-0.614,0.613-1.228,1.227-2.454,1.841c-0.614,0.613-1.228,1.227-1.841,1.84
		s-1.841,1.841-2.454,2.454s-0.613,0.613-1.227,1.228c-1.228,1.227-2.454,2.453-3.067,4.294c-0.614,0.613-0.614,1.227-1.228,1.841
		c-0.613,1.227-1.227,1.84-1.84,3.067c-0.614,0.613-0.614,1.227-1.228,1.841c-0.613,1.227-1.227,1.84-1.227,3.067
		c0,0.613-0.614,1.227-0.614,1.84c-0.613,1.228-0.613,1.841-1.227,3.067c0,0.614-0.613,1.228-0.613,2.454
		c-0.613,1.228-0.613,2.454-0.613,3.067c0,0.614-0.614,1.228-0.614,1.841c0,1.228-0.613,2.454-0.613,3.681c0,0.614,0,1.228,0,1.841
		c0,1.841,0,3.681,0,5.521s0,3.681,0,5.521c0,0.613,0,1.228,0,1.841c0,1.227,0.613,2.454,0.613,3.681
		c0,0.613,0.614,1.228,0.614,1.841c0,1.227,0.613,2.454,0.613,3.067s0.613,1.227,0.613,2.454c0.613,1.227,0.613,1.84,1.227,3.067
		c0,0.613,0.614,1.227,0.614,1.841c0.613,1.227,0.613,1.84,1.227,3.067c0.613,0.613,0.613,1.227,1.228,1.84
		c0.613,1.228,1.227,1.841,1.84,3.067c0.613,0.614,0.613,1.228,1.228,1.841c1.227,1.228,1.84,3.067,3.067,4.295
		c0.613,0.613,0.613,0.613,1.227,1.227s1.841,1.841,2.454,2.454s1.227,1.227,1.841,1.841c0.613,0.613,1.227,1.227,2.454,1.84
		c0.613,0.614,1.227,1.228,1.84,1.841s1.228,1.227,2.454,1.841c0.613,0.613,1.228,1.227,2.454,1.227
		c0.613,0.613,1.227,1.228,2.454,1.228c0.613,0.613,1.841,0.613,2.454,1.227s1.84,0.613,2.454,1.227
		c0.613,0.614,1.84,0.614,2.454,1.228c0.613,0.613,1.84,0.613,2.453,1.227c0.614,0,1.841,0.613,2.454,0.613
		c1.841,0.614,3.067,1.228,4.908,1.228c3.681,0.613,7.976,1.227,12.27,1.227c4.295,0,8.59-0.613,12.271-1.227
		c1.841-0.613,3.067-0.613,4.908-1.228c0.613,0,1.84-0.613,2.454-0.613c0.613,0,1.84-0.613,2.453-1.227
		c0.614-0.613,1.841-0.613,2.454-1.228c0.614-0.613,1.841-0.613,2.454-1.227s1.841-0.613,2.454-1.227
		c0.613-0.614,1.228-0.614,2.454-1.228c0.613-0.613,1.227-1.227,2.454-1.227c0.613-0.614,1.227-1.228,2.454-1.841
		c0.613-0.613,1.227-1.227,1.84-1.841c0.614-0.613,1.228-1.227,2.454-1.84c0.613-0.614,1.228-1.228,1.841-1.841
		s1.841-1.841,2.454-2.454s0.613-0.613,1.227-1.227c1.228-1.228,2.454-2.454,3.067-4.295c0.614-0.613,0.614-1.227,1.228-1.841
		c0.613-1.227,1.227-1.84,1.84-3.067c0.614-0.613,0.614-1.227,1.228-1.84c0.613-1.228,1.227-1.841,1.227-3.067
		c0-0.614,0.614-1.228,0.614-1.841c0.613-1.228,0.613-1.841,1.227-3.067c0-0.613,0.613-1.228,0.613-2.454
		c0.613-1.228,0.613-2.454,0.613-3.067s0.614-1.228,0.614-1.841c0-1.227,0.613-2.454,0.613-3.681c0-0.613,0-1.228,0-1.841
		c0-1.841,0-3.681,0-5.521s0-3.681,0-5.521c0-0.613,0-1.227,0-1.841c0-1.227-0.613-2.453-0.613-3.681
		c0-0.613-0.614-1.227-0.614-1.841c0-1.227-0.613-2.453-0.613-3.067c0-0.613-0.613-1.227-0.613-2.454
		c-0.613-1.227-0.613-1.84-1.227-3.067c0-0.613-0.614-1.227-0.614-1.84c-0.613-1.228-0.613-1.841-1.227-3.067
		c-0.613-0.614-0.613-1.228-1.228-1.841c-0.613-1.228-1.227-1.841-1.84-3.067c-0.613-0.613-0.613-1.228-1.228-1.841
		c-1.227-1.227-1.84-3.067-3.067-4.294c-0.613-0.614-0.613-0.614-1.227-1.228s-1.841-1.841-2.454-2.454s-1.228-1.227-1.841-1.84
		c-0.613-0.614-1.227-1.228-2.454-1.841c-0.613-0.613-1.227-1.228-1.84-1.841s-1.228-1.227-2.454-1.84
		c-0.613-0.614-1.228-1.228-2.454-1.228c-0.613-0.613-1.227-1.227-2.454-1.227c-0.613-0.614-1.841-0.614-2.454-1.228
		s-1.84-0.613-2.454-1.227c-0.613-0.613-1.84-0.613-2.454-1.228c-0.613-0.613-1.84-0.613-2.453-1.227
		c-0.614,0-1.841-0.613-2.454-0.613c-1.841-0.614-3.067-1.228-4.908-1.228c-3.681-0.613-7.976-1.227-12.271-1.227
		c-4.294,0-8.589,0.613-12.27,1.227C-608.606-2098.516-609.833-2098.516-611.674-2097.902z"/>
	<path fill="#FCB860" d="M-654.005-2315.081c0,1.841,0,3.682,0,5.521c0,0.614,0,1.228,0,1.841c0,1.228,0.613,2.454,0.613,3.681
		c0,0.614,0.614,1.228,0.614,1.841c0,1.228,0.613,2.454,0.613,3.067c0,0.614,0.613,1.228,0.613,2.454
		c0.613,1.228,0.613,1.841,1.227,3.067c0,0.613,0.614,1.228,0.614,1.841c0.613,1.227,0.613,1.841,1.227,3.067
		c0.613,0.613,0.613,1.227,1.228,1.841c0.613,1.227,1.227,1.84,1.84,3.067c0.613,0.613,0.613,1.227,1.228,1.84
		c1.227,1.228,1.84,3.068,3.067,4.295c0.613,0.613,0.613,0.613,1.227,1.227c0.613,0.614,1.841,1.841,2.454,2.454
		c0.613,0.614,1.227,1.228,1.841,1.841c0.613,0.613,1.227,1.227,2.454,1.841c0.613,0.613,1.227,1.227,1.84,1.84
		c0.613,0.614,1.228,1.228,2.454,1.841c0.613,0.613,1.228,1.227,2.454,1.227c0.613,0.614,1.227,1.228,2.454,1.228
		c0.613,0.613,1.841,0.613,2.454,1.227c0.613,0.614,1.84,0.614,2.454,1.228c0.613,0.613,1.84,0.613,2.454,1.227
		c0.613,0.613,1.84,0.613,2.453,1.228c0.614,0,1.841,0.613,2.454,0.613c1.841,0.613,3.067,1.227,4.908,1.227
		c3.681,0.614,7.976,1.228,12.27,1.228c4.295,0,8.59-0.614,12.271-1.228c1.841-0.613,3.067-0.613,4.908-1.227
		c0.613,0,1.84-0.613,2.454-0.613c0.613,0,1.84-0.614,2.453-1.228c0.614-0.613,1.841-0.613,2.454-1.227
		c0.614-0.613,1.841-0.613,2.454-1.228c0.613-0.613,1.841-0.613,2.454-1.227s1.228-0.613,2.454-1.228
		c0.613-0.613,1.227-1.227,2.454-1.227c0.613-0.613,1.227-1.227,2.454-1.841c0.613-0.613,1.227-1.227,1.84-1.84
		c0.614-0.614,1.228-1.228,2.454-1.841c0.613-0.613,1.228-1.227,1.841-1.841c0.613-0.613,1.841-1.84,2.454-2.454
		c0.613-0.613,0.613-0.613,1.227-1.227c1.228-1.227,2.454-2.454,3.067-4.295c0.614-0.613,0.614-1.227,1.228-1.84
		c0.613-1.228,1.227-1.841,1.84-3.067c0.614-0.614,0.614-1.228,1.228-1.841c0.613-1.227,1.227-1.841,1.227-3.067
		c0-0.613,0.614-1.228,0.614-1.841c0.613-1.227,0.613-1.84,1.227-3.067c0-0.613,0.613-1.227,0.613-2.454
		c0.613-1.227,0.613-2.453,0.613-3.067c0-0.613,0.614-1.227,0.614-1.841c0-1.227,0.613-2.453,0.613-3.681c0-0.613,0-1.227,0-1.841
		c0-1.84,0-3.681,0-5.521c0-32.515-26.381-59.509-59.51-59.509C-627.624-2374.59-654.005-2347.595-654.005-2315.081z"/>
</g>
<path fill="#F26727" d="M-672.41-2315.081c0,2.454,0,4.908,0.614,7.362c0,0.613,0,1.841,0.613,2.454
	c0,1.841,0.613,3.067,0.613,4.908c0,1.227,0.613,1.84,0.613,3.067c0.614,1.227,0.614,2.454,1.228,4.294
	c0.613,1.228,0.613,1.841,1.227,3.068c0.613,1.227,0.613,2.453,1.228,3.681c0.613,1.227,1.227,2.454,1.227,3.067
	c0.613,1.227,1.228,1.841,1.228,3.067c0.613,1.228,1.227,2.454,1.84,3.681c0.613,0.614,1.228,1.841,1.841,2.454
	c0.613,1.228,1.227,2.454,2.454,3.682c0.613,0.613,1.227,1.227,1.227,1.84c1.228,1.228,1.841,2.454,3.067,3.682
	c0,0.613,0.614,0.613,0.614,1.227c11.656,13.497,27.606,22.699,46.012,25.153l0,0v120.859l0,0
	c-18.405,3.067-34.355,12.27-46.012,25.153c0,0.613-0.614,0.613-0.614,1.227c-1.227,1.228-1.84,2.454-3.067,3.681
	c-0.613,0.614-1.227,1.228-1.227,1.841c-0.613,1.228-1.841,2.454-2.454,3.681c-0.613,0.614-1.228,1.841-1.841,2.454
	c-0.613,1.228-1.227,2.454-1.84,3.682c-0.614,1.227-1.228,1.84-1.228,3.067c-0.613,1.227-1.227,2.454-1.227,3.067
	c-0.614,1.227-0.614,2.454-1.228,3.681c-0.613,1.228-0.613,1.841-1.227,3.067c-0.613,1.228-0.613,2.454-1.228,4.295
	c0,1.227-0.613,1.841-0.613,3.067c-0.613,1.227-0.613,3.067-1.227,4.295c0,0.613,0,1.84-0.614,2.453
	c0,2.454-0.613,4.908-0.613,7.362s0,4.908,0.613,7.362c0,0.613,0,1.84,0.614,2.454c0,1.84,0.613,3.067,0.613,4.907
	c0,1.228,0.613,1.841,0.613,3.067c0.613,1.228,0.613,2.454,1.228,4.295c0.613,1.227,0.613,1.841,1.227,3.067
	s0.613,2.454,1.227,3.681c0.614,1.228,1.228,2.454,1.841,3.682c0.613,1.227,1.228,1.84,1.228,3.067
	c0.613,1.227,1.227,2.454,1.84,3.681c0.613,0.613,1.228,1.841,1.841,2.454c0.613,1.227,1.227,2.454,2.454,3.681
	c0.613,0.614,1.227,1.228,1.227,1.841c1.228,1.227,1.841,2.454,3.067,3.681c0,0.614,0.614,0.614,0.614,1.228
	c11.656,13.497,27.606,22.699,46.012,25.153l0,0v120.245l0,0c-18.405,3.067-34.355,12.271-46.012,25.153
	c0,0.613-0.614,0.613-0.614,1.228c-1.227,1.227-1.84,2.453-3.067,3.681c-0.613,0.613-1.227,1.227-1.227,1.841
	c-0.613,1.227-1.841,2.453-2.454,3.681c-0.613,0.613-1.228,1.841-1.841,2.454c-0.613,1.227-1.227,2.454-1.84,3.681
	c-0.614,1.228-1.228,1.841-1.228,3.067c-0.613,1.228-1.227,2.454-1.227,3.067c-0.614,1.228-0.614,2.454-1.228,3.682
	c-0.613,1.227-0.613,1.84-1.227,3.067c-0.613,1.227-0.613,2.454-1.228,4.294c0,1.228-0.613,1.841-0.613,3.067
	c-0.613,1.841-0.613,3.068-1.227,4.908c0,0.613,0,1.841-0.614,2.454c0,2.454-0.613,4.908-0.613,7.362s0,4.908,0.613,7.361
	c0,0.614,0,1.841,0.614,2.454c0.613,1.841,0.613,3.682,1.227,5.521c0,1.228,0.613,1.841,0.613,3.067
	c0.614,1.228,0.614,2.454,1.228,4.295c0.613,1.227,0.613,1.841,1.227,3.067c0.613,1.228,0.613,2.454,1.228,3.681
	c0.613,1.228,1.227,2.454,1.227,3.067c0.613,1.228,1.228,1.841,1.228,3.068c0.613,1.227,1.227,2.453,1.84,3.681
	c0.613,0.613,1.228,1.84,1.841,2.454c0.613,1.227,1.227,2.454,2.454,3.681c0.613,0.613,1.227,1.227,1.227,1.841
	c1.228,1.227,1.841,2.454,3.067,3.681c0,0.613,0.614,0.613,0.614,1.227c11.656,13.497,27.606,22.699,46.012,25.153l0,0v120.246l0,0
	c-18.405,3.067-34.355,12.27-46.012,25.153c0,0.613-0.614,0.613-0.614,1.227c-1.227,1.228-1.84,2.454-3.067,3.681
	c-0.613,0.614-1.227,1.228-1.227,1.841c-0.613,1.228-1.841,2.454-2.454,3.681c-0.613,0.614-1.228,1.841-1.841,2.454
	c-0.613,1.228-1.227,2.454-1.84,3.682c-0.614,0.613-1.228,1.84-1.228,3.067c-0.613,1.227-1.227,2.454-1.227,3.067
	c-0.614,1.227-0.614,2.454-1.228,3.681c-0.613,1.228-0.613,1.841-1.227,3.067c-0.613,1.228-0.613,2.454-1.228,4.295
	c0,1.227-0.613,1.84-0.613,3.067c-0.613,1.227-0.613,3.067-1.227,4.908c0,0.613,0,1.84-0.614,2.454c0,2.453-0.613,4.907-0.613,7.361
	c0,42.945,34.97,77.914,77.914,77.914c42.945,0,77.914-34.969,77.914-77.914c0-2.454,0-4.908-0.613-7.361
	c0-0.614,0-1.841-0.613-2.454c0-1.841-0.613-3.067-0.613-4.908c0-1.228-0.614-1.841-0.614-3.067
	c-0.613-1.228-0.613-2.454-1.227-4.295c-0.613-1.227-0.613-1.84-1.228-3.067c-0.613-1.227-0.613-2.454-1.227-3.681
	c-0.613-1.228-1.227-2.454-1.227-3.067c-0.614-1.228-1.228-1.841-1.228-3.067c-0.613-1.228-1.227-2.454-1.84-3.682
	c-0.614-0.613-1.228-1.84-1.841-2.454c-0.613-1.227-1.228-2.453-2.454-3.681c-0.613-0.613-1.227-1.227-1.227-1.841
	c-1.228-1.227-1.841-2.453-3.068-3.681c0-0.613-0.613-0.613-0.613-1.227c-11.656-13.497-27.607-22.699-46.012-25.153l0,0v-120.859
	l0,0c18.404-3.067,34.355-12.27,46.012-25.153c0-0.613,0.613-0.613,0.613-1.227c1.228-1.228,1.841-2.454,3.068-3.682
	c0.613-0.613,1.227-1.227,1.227-1.84c0.613-1.228,1.841-2.454,2.454-3.681c0.613-0.614,1.227-1.841,1.841-2.454
	c0.613-1.228,1.227-2.454,1.84-3.682c0.613-1.227,1.228-1.84,1.228-3.067c0.613-1.227,1.227-2.454,1.227-3.067
	c0.613-1.227,0.613-2.454,1.227-3.681c0.614-1.228,0.614-1.841,1.228-3.067c0.613-1.228,0.613-2.454,1.227-4.295
	c0-1.227,0.614-1.84,0.614-3.067c0.613-1.841,0.613-3.067,0.613-4.908c0-0.613,0-1.84,0.613-2.454c0-2.453,0.613-4.907,0.613-7.361
	s0-4.908-0.613-7.362c0-0.613,0-1.841-0.613-2.454c0-1.84-0.613-3.067-0.613-4.908c0-1.227-0.614-1.84-0.614-3.067
	c-0.613-1.227-0.613-2.454-1.227-4.294c-0.613-1.228-0.613-1.841-1.228-3.067c-0.613-1.228-0.613-2.454-1.227-3.682
	c-0.613-1.227-1.227-2.454-1.227-3.067c-0.614-1.227-1.228-1.84-1.228-3.067c-0.613-1.227-1.227-2.454-1.84-3.681
	c-0.614-0.613-1.228-1.841-1.841-2.454c-0.613-1.228-1.228-2.454-2.454-3.681c-0.613-0.614-1.227-1.228-1.227-1.841
	c-1.228-1.228-1.841-2.454-3.068-3.681c0-0.614-0.613-0.614-0.613-1.228c-11.656-13.497-27.607-22.699-46.012-25.153l0,0v-120.858
	l0,0c18.404-3.067,34.355-12.271,46.012-25.153c0-0.614,0.613-0.614,0.613-1.228c1.228-1.227,1.841-2.454,3.068-3.681
	c0.613-0.613,1.227-1.227,1.227-1.841c0.613-1.227,1.841-2.454,2.454-3.681c0.613-0.613,1.227-1.841,1.841-2.454
	c0.613-1.227,1.227-2.454,1.84-3.681c0.613-1.228,1.228-1.841,1.228-3.067c0.613-1.228,1.227-2.454,1.227-3.067
	c0.613-1.228,0.613-2.454,1.227-3.682c0.614-1.227,0.614-1.84,1.228-3.067c0.613-1.227,0.613-2.454,1.227-4.294
	c0-1.228,0.614-1.841,0.614-3.068c0.613-1.84,0.613-3.067,0.613-4.907c0-0.614,0-1.841,0.613-2.454c0-2.454,0.613-4.908,0.613-7.362
	s0-4.908-0.613-7.362c0-0.613,0-1.84-0.613-2.453c0-1.841-0.613-3.068-0.613-4.908c0-1.228-0.614-1.841-0.614-3.067
	c-0.613-1.228-0.613-2.454-1.227-4.295c-0.613-1.227-0.613-1.841-1.228-3.067c-0.613-1.227-0.613-2.454-1.227-3.681
	c-0.613-1.228-1.227-2.454-1.227-3.067c-0.614-1.228-1.228-1.841-1.228-3.067c-0.613-1.228-1.227-2.454-1.84-3.682
	c-0.614-0.613-1.228-1.84-1.841-2.454c-0.613-1.227-1.228-2.454-2.454-3.681c-0.613-0.613-1.227-1.227-1.227-1.841
	c-1.228-1.227-1.841-2.454-3.068-3.681c0-0.613-0.613-0.613-0.613-1.227c-11.656-13.497-27.607-22.7-46.012-25.153l0,0v-120.246l0,0
	c18.404-3.067,34.355-12.27,46.012-25.153c0-0.613,0.613-0.613,0.613-1.227c1.228-1.228,1.841-2.454,3.068-3.682
	c0.613-0.613,1.227-1.227,1.227-1.84c0.613-1.228,1.841-2.454,2.454-3.682c0.613-0.613,1.227-1.841,1.841-2.454
	c0.613-1.227,1.227-2.453,1.84-3.681c0.613-1.227,1.228-1.841,1.228-3.067c0.613-1.227,1.227-2.454,1.227-3.067
	c0.613-1.228,0.613-2.454,1.227-3.681c0.614-1.228,0.614-1.841,1.228-3.068c0.613-1.227,0.613-2.453,1.227-4.294
	c0-1.228,0.614-1.841,0.614-3.067c0.613-1.841,0.613-3.067,0.613-4.908c0-0.613,0-1.841,0.613-2.454
	c0-2.454,0.613-4.908,0.613-7.362c0-42.944-34.969-77.914-77.914-77.914C-638.053-2392.995-672.41-2358.025-672.41-2315.081z
	 M-534.986-2315.081c0,1.841,0,3.682,0,5.521c0,0.614,0,1.228,0,1.841c0,1.228-0.613,2.454-0.613,3.681
	c0,0.614-0.614,1.228-0.614,1.841c0,1.228-0.613,2.454-0.613,3.067c0,0.614-0.613,1.228-0.613,2.454
	c-0.613,1.228-0.613,1.841-1.227,3.067c0,0.613-0.614,1.228-0.614,1.841c-0.613,1.227-0.613,1.841-1.227,3.067
	c-0.613,0.613-0.613,1.227-1.228,1.841c-0.613,1.227-1.227,1.84-1.84,3.067c-0.613,0.613-0.613,1.227-1.228,1.84
	c-1.227,1.228-1.84,3.068-3.067,4.295c-0.613,0.613-0.613,0.613-1.227,1.227c-0.613,0.614-1.841,1.841-2.454,2.454
	c-0.613,0.614-1.228,1.228-1.841,1.841s-1.227,1.227-2.454,1.841c-0.613,0.613-1.227,1.227-1.84,1.84
	c-0.613,0.614-1.228,1.228-2.454,1.841c-0.613,0.613-1.228,1.227-2.454,1.227c-0.613,0.614-1.227,1.228-2.454,1.228
	c-0.613,0.613-1.841,0.613-2.454,1.227c-0.613,0.614-1.84,0.614-2.454,1.228c-0.613,0.613-1.84,0.613-2.454,1.227
	c-0.613,0.613-1.84,0.613-2.453,1.228c-0.614,0-1.841,0.613-2.454,0.613c-1.841,0.613-3.067,1.227-4.908,1.227
	c-3.681,0.614-7.976,1.228-12.271,1.228c-4.294,0-8.589-0.614-12.27-1.228c-1.841-0.613-3.067-0.613-4.908-1.227
	c-0.613,0-1.84-0.613-2.454-0.613c-0.613,0-1.84-0.614-2.453-1.228c-0.614-0.613-1.841-0.613-2.454-1.227
	c-0.614-0.613-1.841-0.613-2.454-1.228c-0.613-0.613-1.841-0.613-2.454-1.227s-1.228-0.613-2.454-1.228
	c-0.613-0.613-1.227-1.227-2.454-1.227c-0.613-0.613-1.227-1.227-2.454-1.841c-0.613-0.613-1.227-1.227-1.84-1.84
	c-0.614-0.614-1.228-1.228-2.454-1.841c-0.613-0.613-1.228-1.227-1.841-1.841c-0.613-0.613-1.841-1.84-2.454-2.454
	c-0.613-0.613-0.613-0.613-1.227-1.227c-1.228-1.227-2.454-2.454-3.067-4.295c-0.614-0.613-0.614-1.227-1.228-1.84
	c-0.613-1.228-1.227-1.841-1.84-3.067c-0.614-0.614-0.614-1.228-1.228-1.841c-0.613-1.227-1.227-1.841-1.227-3.067
	c0-0.613-0.614-1.228-0.614-1.841c-0.613-1.227-0.613-1.84-1.227-3.067c0-0.613-0.613-1.227-0.613-2.454
	c-0.613-1.227-0.613-2.453-0.613-3.067c0-0.613-0.614-1.227-0.614-1.841c0-1.227-0.613-2.453-0.613-3.681c0-0.613,0-1.227,0-1.841
	c0-1.84,0-3.681,0-5.521c0-32.515,26.381-59.509,59.509-59.509C-561.367-2374.59-534.986-2347.595-534.986-2315.081z
	 M-558.299-2088.087c0.613,0.613,1.227,1.228,1.84,1.841s1.228,1.227,2.454,1.841c0.613,0.613,1.228,1.227,1.841,1.84
	s1.84,1.841,2.454,2.454c0.613,0.613,0.613,0.613,1.227,1.228c1.227,1.227,2.454,2.453,3.067,4.294
	c0.613,0.613,0.613,1.228,1.228,1.841c0.613,1.227,1.227,1.84,1.84,3.067c0.613,0.613,0.613,1.227,1.228,1.841
	c0.613,1.227,1.227,1.84,1.227,3.067c0,0.613,0.613,1.227,0.613,1.84c0.614,1.228,0.614,1.841,1.228,3.067
	c0,0.614,0.613,1.228,0.613,2.454c0.613,1.228,0.613,2.454,0.613,3.067c0,0.614,0.613,1.228,0.613,1.841
	c0,1.228,0.614,2.454,0.614,3.681c0,0.614,0,1.228,0,1.841c0,1.841,0,3.681,0,5.521s0,3.681,0,5.521c0,0.613,0,1.228,0,1.841
	c0,1.227-0.614,2.454-0.614,3.681c0,0.613-0.613,1.228-0.613,1.841c0,1.227-0.613,2.454-0.613,3.067s-0.613,1.227-0.613,2.454
	c-0.613,1.227-0.613,1.84-1.228,3.067c0,0.613-0.613,1.227-0.613,1.841c-0.613,1.227-0.613,1.84-1.227,3.067
	c-0.614,0.613-0.614,1.227-1.228,1.84c-0.613,1.228-1.227,1.841-1.84,3.067c-0.614,0.614-0.614,1.228-1.228,1.841
	c-1.227,1.228-1.841,3.067-3.067,4.295c-0.613,0.613-0.613,0.613-1.227,1.227c-0.614,0.613-1.841,1.841-2.454,2.454
	c-0.614,0.613-1.228,1.227-1.841,1.841c-0.613,0.613-1.227,1.227-2.454,1.84c-0.613,0.614-1.227,1.228-1.84,1.841
	c-0.614,0.613-1.228,1.227-2.454,1.841c-0.614,0.613-1.228,1.227-2.454,1.227c-0.613,0.613-1.228,1.228-2.454,1.228
	c-0.613,0.613-1.841,0.613-2.454,1.227s-1.841,0.613-2.454,1.227c-0.613,0.614-1.841,0.614-2.454,1.228s-1.84,0.613-2.454,1.227
	c-0.613,0-1.84,0.614-2.454,0.614c-1.84,0.613-3.067,1.227-4.907,1.227c-3.682,0.613-7.976,1.227-12.271,1.227
	c-4.294,0-8.589-0.613-12.27-1.227c-1.841-0.613-3.067-0.613-4.908-1.227c-0.613,0-1.841-0.614-2.454-0.614s-1.84-0.613-2.454-1.227
	c-0.613-0.613-1.84-0.613-2.454-1.228c-0.613-0.613-1.84-0.613-2.453-1.227c-0.614-0.613-1.841-0.613-2.454-1.227
	c-0.614-0.614-1.228-0.614-2.454-1.228c-0.613-0.613-1.228-1.227-2.454-1.227c-0.613-0.613-1.227-1.228-2.454-1.841
	c-0.613-0.613-1.227-1.227-1.841-1.841c-0.613-0.613-1.227-1.227-2.453-1.84c-0.614-0.614-1.228-1.228-1.841-1.841
	s-1.841-1.841-2.454-2.454s-0.613-0.613-1.227-1.227c-1.228-1.228-2.454-2.454-3.068-4.295c-0.613-0.613-0.613-1.227-1.227-1.841
	c-0.613-1.227-1.227-1.84-1.841-3.067c-0.613-0.613-0.613-1.227-1.227-1.84c-0.613-1.228-1.228-1.841-1.228-3.067
	c0-0.614-0.613-1.228-0.613-1.841c-0.613-1.228-0.613-1.841-1.227-3.067c0-0.613-0.613-1.228-0.613-2.454
	c-0.614-1.228-0.614-2.454-0.614-3.067s-0.613-1.228-0.613-1.841c0-1.227-0.613-2.454-0.613-3.681c0-0.613,0-1.228,0-1.841
	c0-1.841,0-3.681,0-5.521s0-3.681,0-5.521c0-0.613,0-1.227,0-1.841c0-1.227,0.613-2.453,0.613-3.681
	c0-0.613,0.613-1.227,0.613-1.841c0-1.227,0.614-2.453,0.614-3.067c0-0.613,0.613-1.227,0.613-2.454
	c0.613-1.227,0.613-1.84,1.227-3.067c0-0.613,0.613-1.227,0.613-1.84c0.614-1.228,0.614-1.841,1.228-3.067
	c0.613-0.614,0.613-1.228,1.227-1.841c0.614-1.228,1.228-1.841,1.841-3.067c0.613-0.613,0.613-1.228,1.227-1.841
	c1.228-1.227,1.841-3.067,3.068-4.294c0.613-0.614,0.613-0.614,1.227-1.228s1.841-1.841,2.454-2.454s1.227-1.227,1.841-1.84
	c0.613-0.614,1.227-1.228,2.453-1.841c0.614-0.613,1.228-1.228,1.841-1.841s1.228-1.227,2.454-1.84
	c0.613-0.614,1.227-1.228,2.454-1.228c0.613-0.613,1.227-1.227,2.454-1.227c0.613-0.614,1.84-0.614,2.454-1.228
	c0.613-0.613,1.84-0.613,2.453-1.227c0.614-0.613,1.841-0.613,2.454-1.228c0.614-0.613,1.841-0.613,2.454-1.227
	c0.613,0,1.841-0.613,2.454-0.613c1.841-0.613,3.067-1.228,4.908-1.228c3.681-0.613,7.976-1.227,12.27-1.227
	c4.295,0,8.589,0.613,12.271,1.227c1.84,0.614,3.067,0.614,4.907,1.228c0.614,0,1.841,0.613,2.454,0.613
	c0.614,0,1.841,0.613,2.454,1.227c0.613,0.614,1.841,0.614,2.454,1.228s1.841,0.613,2.454,1.227s1.841,0.613,2.454,1.228
	c0.613,0.613,1.227,0.613,2.454,1.227c0.613,0.613,1.227,1.228,2.454,1.228C-559.526-2088.7-558.913-2088.7-558.299-2088.087z
	 M-558.299-1813.853c0.613,0.613,1.227,1.227,1.84,1.841c0.613,0.613,1.228,1.227,2.454,1.84c0.613,0.613,1.228,1.228,1.841,1.841
	s1.84,1.841,2.454,2.454c0.613,0.613,0.613,0.613,1.227,1.227c1.227,1.228,2.454,2.454,3.067,4.295
	c0.613,0.613,0.613,1.227,1.228,1.84c0.613,1.228,1.227,1.841,1.84,3.068c0.613,0.613,0.613,1.227,1.228,1.84
	c0.613,1.228,1.227,1.841,1.227,3.067c0,0.614,0.613,1.228,0.613,1.841c0.614,1.227,0.614,1.841,1.228,3.067
	c0,0.613,0.613,1.228,0.613,2.454c0.613,1.227,0.613,2.454,0.613,3.067c0.613,0.613,0.613,1.228,0.613,1.841
	c0,1.227,0.614,2.454,0.614,3.681c0,0.613,0,1.228,0,1.841c0,1.84,0,3.681,0,5.521c0,1.84,0,3.681,0,5.521c0,0.613,0,1.227,0,1.84
	c0,1.228-0.614,2.454-0.614,3.682c0,0.613-0.613,1.227-0.613,1.84c0,1.228-0.613,2.454-0.613,3.068c0,0.613-0.613,1.227-0.613,2.453
	c-0.613,1.228-0.613,1.841-1.228,3.068c0,0.613-0.613,1.227-0.613,1.84c-0.613,1.228-0.613,1.841-1.227,3.067
	c-0.614,0.613-0.614,1.228-1.228,1.841c-0.613,1.227-1.227,1.841-1.84,3.067c-0.614,0.613-0.614,1.227-1.228,1.841
	c-1.227,1.227-1.841,3.067-3.067,4.294c-0.613,0.613-0.613,0.613-1.227,1.228c-0.614,0.613-1.841,1.84-2.454,2.454
	c-0.614,0.613-1.228,1.227-1.841,1.84s-1.227,1.228-2.454,1.841c-0.613,0.613-1.227,1.227-1.84,1.84
	c-0.614,0.614-1.228,1.228-2.454,1.841c-0.614,0.613-1.228,1.228-2.454,1.228c-0.613,0.613-1.228,1.227-2.454,1.227
	c-0.613,0.613-1.841,0.613-2.454,1.227c-0.613,0.614-1.841,0.614-2.454,1.228s-1.841,0.613-2.454,1.227
	c-0.613,0.614-1.84,0.614-2.454,1.228c-0.613,0-1.84,0.613-2.454,0.613c-1.84,0.613-3.067,1.228-4.907,1.228
	c-3.682,0.613-7.976,1.227-12.271,1.227c-4.294,0-8.589-0.613-12.27-1.227c-1.841-0.614-3.067-0.614-4.908-1.228
	c-0.613,0-1.841-0.613-2.454-0.613s-1.84-0.613-2.454-1.228c-0.613-0.613-1.84-0.613-2.454-1.227
	c-0.613-0.613-1.84-0.613-2.453-1.228c-0.614-0.613-1.841-0.613-2.454-1.227c-0.614-0.613-1.228-0.613-2.454-1.227
	c-0.613-0.614-1.228-1.228-2.454-1.228c-0.613-0.613-1.228-1.227-2.454-1.841c-0.613-0.613-1.227-1.227-1.841-1.84
	c-0.613-0.613-1.227-1.228-2.453-1.841c-0.614-0.613-1.228-1.227-1.841-1.84c-0.613-0.614-1.841-1.841-2.454-2.454
	c-0.613-0.614-0.613-0.614-1.227-1.228c-1.228-1.227-2.454-2.454-3.068-4.294c-0.613-0.614-0.613-1.228-1.227-1.841
	c-0.613-1.227-1.227-1.841-1.841-3.067c-0.613-0.613-0.613-1.228-1.227-1.841c-0.613-1.227-1.228-1.84-1.228-3.067
	c0-0.613-0.613-1.227-0.613-1.84c-0.613-1.228-0.613-1.841-1.227-3.068c0-0.613-0.613-1.227-0.613-2.453
	c-0.614-1.228-0.614-2.454-0.614-3.068c0.614,0,0.614-0.613,0.614-1.227c0-1.227-0.614-2.454-0.614-3.681c0-0.614,0-1.228,0-1.841
	c0-1.841,0-3.681,0-5.521s0-3.681,0-5.521c0-0.613,0-1.227,0-1.841c0-1.84,0.614-3.067,0.614-4.294c0-0.613,0.613-1.228,0.613-1.841
	c0-1.227,0.613-2.454,0.613-3.067s0.613-1.227,0.613-2.454c0.613-1.227,0.613-1.841,1.228-3.067c0-0.613,0.613-1.227,0.613-1.841
	c0.613-1.227,0.613-1.84,1.227-3.067c0.614-0.613,0.614-1.227,1.228-1.84c0.613-1.228,1.227-1.841,1.84-3.068
	c0.614-0.613,0.614-1.227,1.228-1.84c1.227-1.228,1.84-3.067,3.067-4.295c0.613-0.613,0.613-0.613,1.227-1.227
	c0.614-0.613,1.841-1.841,2.454-2.454s1.228-1.228,1.841-1.841s1.227-1.227,2.454-1.84c0.613-0.614,1.227-1.228,1.84-1.841
	c0.614-0.613,1.228-1.228,2.454-1.841c0.614-0.613,1.228-1.227,2.454-1.227c0.613-0.613,1.228-1.228,2.454-1.228
	c0.613-0.613,1.841-0.613,2.454-1.227s1.841-0.613,2.454-1.227c0.613-0.614,1.841-0.614,2.454-1.228s1.84-0.613,2.454-1.227
	c0.613,0,1.84-0.613,2.453-0.613c1.841-0.614,3.068-1.228,4.908-1.228c3.682-0.613,7.976-1.227,12.271-1.227
	c4.294,0,8.589,0.613,12.27,1.227c1.841,0.613,3.067,0.613,4.908,1.228c0.613,0,1.841,0.613,2.454,0.613s1.84,0.613,2.454,1.227
	c0.613,0.613,1.84,0.613,2.454,1.228c0.613,0.613,1.84,0.613,2.453,1.227c0.614,0.613,1.841,0.613,2.454,1.227
	c0.614,0.614,1.228,0.614,2.454,1.228c0.613,0.613,1.228,1.227,2.454,1.227C-559.526-1815.081-558.913-1814.467-558.299-1813.853z
	 M-558.299-1539.621c0.613,0.614,1.227,1.228,1.84,1.841s1.228,1.228,2.454,1.841c0.613,0.613,1.228,1.227,1.841,1.84
	c0.613,0.614,1.84,1.841,2.454,2.454c0.613,0.614,0.613,0.614,1.227,1.228c1.227,1.227,2.454,2.454,3.067,4.294
	c0.613,0.614,0.613,1.228,1.228,1.841c0.613,1.227,1.227,1.841,1.84,3.067c0.613,0.613,0.613,1.228,1.228,1.841
	c0.613,1.227,1.227,1.84,1.227,3.067c0,0.613,0.613,1.227,0.613,1.84c0.614,1.228,0.614,1.841,1.228,3.068
	c0,0.613,0.613,1.227,0.613,2.453c0.613,1.228,0.613,2.454,0.613,3.068c0,0.613,0.613,1.227,0.613,1.84
	c0,1.228,0.614,2.454,0.614,3.682c0,0.613,0,1.227,0,1.84c0,1.841,0,3.682,0,5.521c0,32.516-26.381,59.51-59.51,59.51
	s-59.509-26.381-59.509-59.51c0-1.84,0-3.681,0-5.521c0-0.613,0-1.227,0-1.84c0-1.228,0.613-2.454,0.613-3.682
	c0-0.613,0.613-1.227,0.613-1.84c0-1.228,0.614-2.454,0.614-3.068c0-0.613,0.613-1.227,0.613-2.453
	c0.613-1.228,0.613-1.841,1.227-3.068c0-0.613,0.613-1.227,0.613-1.84c0.614-1.228,0.614-1.841,1.228-3.067
	c1.841-1.228,2.454-1.841,2.454-2.454c0.613-1.228,1.227-1.841,1.84-3.067c0.614-0.613,0.614-1.228,1.228-1.841
	c1.227-1.227,1.84-3.067,3.067-4.294c0.613-0.614,0.613-0.614,1.227-1.228c0.614-0.613,1.841-1.841,2.454-2.454
	s1.228-1.227,1.841-1.84c0.613-0.614,1.227-1.228,2.454-1.841c0.613-0.613,1.227-1.228,1.84-1.841
	c0.614-0.613,1.228-1.227,2.454-1.84c0.614-0.614,1.228-1.228,2.454-1.228c0.613-0.613,1.228-1.227,2.454-1.227
	c0.613-0.614,1.841-0.614,2.454-1.228s1.841-0.613,2.454-1.227s1.841-0.613,2.454-1.228c0.613-0.613,1.84-0.613,2.454-1.227
	c0.613,0,1.84-0.613,2.453-0.613c1.841-0.614,3.068-1.228,4.908-1.228c3.682-0.613,7.976-1.227,12.271-1.227
	c4.294,0,8.589,0.613,12.27,1.227c1.841,0.613,3.067,0.613,4.908,1.228c0.613,0,1.841,0.613,2.454,0.613s1.84,0.613,2.454,1.227
	c0.613,0.614,1.84,0.614,2.454,1.228c0.613,0.613,1.84,0.613,2.453,1.227c0.614,0.613,1.841,0.613,2.454,1.228
	c0.614,0.613,1.228,0.613,2.454,1.227c0.613,0.613,1.228,1.228,2.454,1.228C-559.526-1540.847-558.913-1540.234-558.299-1539.621z"
	/>
<g>
	<line stroke="#F26727" stroke-width="11" stroke-miterlimit="10" x1="-1000" y1="250" x2="0" y2="250"/>
	<line stroke="#F26727" stroke-width="11" stroke-miterlimit="10" x1="-1000" y1="1060" x2="0" y2="1060"/>
	<line stroke="#F26727" stroke-width="11" stroke-miterlimit="10" x1="-1000" y1="2110" x2="0" y2="2110"/>
	<line stroke="#F26727" stroke-width="11" stroke-miterlimit="10" x1="-1000" y1="3450" x2="0" y2="3450"/>
	<line stroke="#F26727" stroke-width="11" stroke-miterlimit="10" x1="-1000" y1="-560" x2="0" y2="-560"/>
</g>
<g>
	<g>
		<rect x="487.999" y="-2399.792" fill="#F26727" width="26" height="5847.793"/>
		<path fill="#F26727" d="M422.501,248.397c0,2.397,0,4.795,0,7.191c0,0.8,0,1.599,0,2.397c0,1.599,0.799,3.196,0.799,4.793
			c0,0.8,0.801,1.599,0.801,2.397c0,1.599,0.799,3.196,0.799,3.995c0,0.8,0.799,1.599,0.799,3.196
			c0.799,1.599,0.799,2.397,1.598,3.995c0,0.798,0.799,1.599,0.799,2.397c0.798,1.598,0.798,2.397,1.597,3.995
			c0.799,0.798,0.799,1.597,1.601,2.397c0.798,1.598,1.597,2.396,2.396,3.995c0.799,0.799,0.799,1.598,1.598,2.396
			c1.598,1.599,2.396,3.996,3.996,5.593c0.799,0.798,0.799,0.798,1.597,1.597c0.799,0.8,2.396,2.397,3.195,3.196
			c0.799,0.8,1.597,1.599,2.398,2.397c0.799,0.799,1.598,1.597,3.194,2.397c0.799,0.798,1.598,1.597,2.396,2.396
			c0.799,0.8,1.6,1.599,3.197,2.397c0.799,0.798,1.598,1.597,3.194,1.597c0.799,0.8,1.598,1.599,3.197,1.599
			c0.799,0.799,2.396,0.799,3.195,1.597c0.798,0.8,2.396,0.8,3.197,1.599c0.798,0.799,2.396,0.799,3.194,1.598
			s2.396,0.799,3.194,1.599c0.802,0,2.399,0.799,3.197,0.799c2.396,0.798,3.994,1.597,6.393,1.597
			c4.792,0.8,10.385,1.599,15.979,1.599s11.187-0.8,15.979-1.599c2.398-0.799,3.996-0.799,6.393-1.597
			c0.798,0,2.396-0.799,3.197-0.799c0.798,0,2.396-0.8,3.194-1.599s2.396-0.799,3.194-1.598c0.802-0.798,2.399-0.798,3.197-1.599
			c0.799-0.798,2.396-0.798,3.195-1.597s1.6-0.799,3.197-1.599c0.799-0.799,1.597-1.597,3.194-1.597
			c0.799-0.799,1.598-1.598,3.197-2.397c0.799-0.799,1.598-1.598,2.396-2.396c0.799-0.8,1.597-1.599,3.194-2.397
			c0.799-0.798,1.6-1.597,2.398-2.397c0.799-0.799,2.396-2.396,3.195-3.196c0.798-0.799,0.798-0.799,1.597-1.597
			c1.601-1.598,3.197-3.196,3.996-5.593c0.799-0.799,0.799-1.598,1.598-2.396c0.799-1.599,1.598-2.397,2.396-3.995
			c0.802-0.8,0.802-1.599,1.601-2.397c0.799-1.598,1.597-2.397,1.597-3.995c0-0.798,0.799-1.599,0.799-2.397
			c0.799-1.597,0.799-2.396,1.598-3.995c0-0.799,0.799-1.598,0.799-3.196c0.799-1.597,0.799-3.194,0.799-3.995
			c0-0.798,0.801-1.597,0.801-2.397c0-1.598,0.799-3.195,0.799-4.793c0-0.799,0-1.597,0-2.397c0-2.396,0-4.793,0-7.191
			c0-42.344-34.356-77.499-77.5-77.499S422.501,206.053,422.501,248.397z"/>
		<path fill="#FCB860" d="M440.491,248.304c0,1.841,0,3.682,0,5.521c0,0.614,0,1.228,0,1.841c0,1.228,0.613,2.454,0.613,3.681
			c0,0.614,0.615,1.228,0.615,1.841c0,1.228,0.613,2.454,0.613,3.067c0,0.614,0.613,1.228,0.613,2.454
			c0.613,1.228,0.613,1.841,1.227,3.067c0,0.613,0.613,1.228,0.613,1.841c0.613,1.227,0.613,1.841,1.227,3.067
			c0.613,0.613,0.613,1.227,1.229,1.841c0.613,1.227,1.227,1.84,1.84,3.067c0.613,0.613,0.613,1.227,1.227,1.84
			c1.227,1.228,1.84,3.068,3.068,4.295c0.613,0.613,0.613,0.613,1.227,1.227c0.613,0.614,1.84,1.841,2.453,2.454
			c0.613,0.614,1.227,1.228,1.842,1.841c0.613,0.613,1.227,1.227,2.453,1.841c0.613,0.613,1.227,1.227,1.84,1.84
			c0.613,0.614,1.229,1.228,2.455,1.841c0.613,0.613,1.227,1.227,2.453,1.227c0.613,0.614,1.227,1.228,2.455,1.228
			c0.613,0.613,1.84,0.613,2.453,1.227c0.613,0.614,1.84,0.614,2.455,1.228c0.613,0.613,1.84,0.613,2.453,1.227
			s1.84,0.613,2.453,1.228c0.615,0,1.842,0.613,2.455,0.613c1.84,0.613,3.066,1.227,4.908,1.227c3.68,0.614,7.975,1.228,12.27,1.228
			s8.59-0.614,12.27-1.228c1.842-0.613,3.068-0.613,4.908-1.227c0.613,0,1.84-0.613,2.455-0.613c0.613,0,1.84-0.614,2.453-1.228
			s1.84-0.613,2.453-1.227c0.615-0.613,1.842-0.613,2.455-1.228c0.613-0.613,1.84-0.613,2.453-1.227s1.229-0.613,2.455-1.228
			c0.613-0.613,1.227-1.227,2.453-1.227c0.613-0.613,1.227-1.227,2.455-1.841c0.613-0.613,1.227-1.227,1.84-1.84
			c0.613-0.614,1.227-1.228,2.453-1.841c0.613-0.613,1.229-1.227,1.842-1.841c0.613-0.613,1.84-1.84,2.453-2.454
			c0.613-0.613,0.613-0.613,1.227-1.227c1.229-1.227,2.455-2.454,3.068-4.295c0.613-0.613,0.613-1.227,1.227-1.84
			c0.613-1.228,1.227-1.841,1.84-3.067c0.615-0.614,0.615-1.228,1.229-1.841c0.613-1.227,1.227-1.841,1.227-3.067
			c0-0.613,0.613-1.228,0.613-1.841c0.613-1.227,0.613-1.84,1.227-3.067c0-0.613,0.613-1.227,0.613-2.454
			c0.613-1.227,0.613-2.453,0.613-3.067c0-0.613,0.615-1.227,0.615-1.841c0-1.227,0.613-2.453,0.613-3.681c0-0.613,0-1.227,0-1.841
			c0-1.84,0-3.681,0-5.521c0-32.515-26.381-59.509-59.51-59.509S440.491,215.79,440.491,248.304z"/>
		<path fill="#F26727" d="M422.501,1040.499c0,2.398,0,4.795,0,7.191c0,0.801,0,1.6,0,2.398c0,1.598,0.799,3.195,0.799,4.793
			c0,0.799,0.801,1.598,0.801,2.396c0,1.6,0.799,3.197,0.799,3.994c0,0.801,0.799,1.6,0.799,3.197
			c0.799,1.598,0.799,2.396,1.598,3.994c0,0.799,0.799,1.6,0.799,2.396c0.798,1.598,0.798,2.398,1.597,3.996
			c0.799,0.799,0.799,1.598,1.601,2.396c0.798,1.598,1.597,2.396,2.396,3.994c0.799,0.799,0.799,1.598,1.598,2.396
			c1.598,1.6,2.396,3.996,3.996,5.594c0.799,0.799,0.799,0.799,1.597,1.598c0.799,0.799,2.396,2.396,3.195,3.195
			c0.799,0.801,1.597,1.6,2.398,2.398c0.799,0.799,1.598,1.596,3.194,2.396c0.799,0.799,1.598,1.598,2.396,2.396
			s1.6,1.598,3.197,2.396c0.799,0.799,1.598,1.598,3.194,1.598c0.799,0.801,1.598,1.6,3.197,1.6
			c0.799,0.799,2.396,0.799,3.195,1.596c0.798,0.801,2.396,0.801,3.197,1.6c0.798,0.799,2.396,0.799,3.194,1.598
			s2.396,0.799,3.194,1.598c0.802,0,2.399,0.799,3.197,0.799c2.396,0.799,3.994,1.598,6.393,1.598
			c4.792,0.801,10.385,1.6,15.979,1.6s11.187-0.801,15.979-1.6c2.398-0.799,3.996-0.799,6.393-1.598
			c0.798,0,2.396-0.799,3.197-0.799c0.798,0,2.396-0.799,3.194-1.598s2.396-0.799,3.194-1.598c0.802-0.799,2.399-0.799,3.197-1.6
			c0.799-0.797,2.396-0.797,3.195-1.596s1.6-0.799,3.197-1.6c0.799-0.799,1.597-1.598,3.194-1.598
			c0.799-0.799,1.598-1.598,3.197-2.396c0.799-0.799,1.598-1.598,2.396-2.396c0.799-0.801,1.597-1.598,3.194-2.396
			c0.799-0.799,1.6-1.598,2.398-2.398c0.799-0.799,2.396-2.396,3.195-3.195c0.798-0.799,0.798-0.799,1.597-1.598
			c1.601-1.598,3.197-3.195,3.996-5.594c0.799-0.799,0.799-1.598,1.598-2.396c0.799-1.598,1.598-2.396,2.396-3.994
			c0.802-0.799,0.802-1.598,1.601-2.396c0.799-1.598,1.597-2.398,1.597-3.996c0-0.797,0.799-1.598,0.799-2.396
			c0.799-1.598,0.799-2.396,1.598-3.994c0-0.799,0.799-1.598,0.799-3.197c0.799-1.596,0.799-3.193,0.799-3.994
			c0-0.799,0.801-1.598,0.801-2.396c0-1.598,0.799-3.195,0.799-4.793c0-0.799,0-1.598,0-2.398c0-2.396,0-4.793,0-7.191
			c0-42.344-34.356-77.498-77.5-77.498S422.501,998.155,422.501,1040.499z"/>
		<path fill="#FCB860" d="M440.491,1040.407c0,1.842,0,3.682,0,5.521c0,0.615,0,1.229,0,1.842c0,1.227,0.613,2.453,0.613,3.68
			c0,0.615,0.615,1.229,0.615,1.842c0,1.227,0.613,2.453,0.613,3.066c0,0.615,0.613,1.229,0.613,2.455
			c0.613,1.227,0.613,1.84,1.227,3.066c0,0.613,0.613,1.229,0.613,1.842c0.613,1.227,0.613,1.84,1.227,3.066
			c0.613,0.613,0.613,1.227,1.229,1.842c0.613,1.227,1.227,1.84,1.84,3.066c0.613,0.613,0.613,1.227,1.227,1.84
			c1.227,1.229,1.84,3.068,3.068,4.295c0.613,0.613,0.613,0.613,1.227,1.227c0.613,0.615,1.84,1.842,2.453,2.455
			s1.227,1.227,1.842,1.84c0.613,0.613,1.227,1.227,2.453,1.842c0.613,0.613,1.227,1.227,1.84,1.84s1.229,1.227,2.455,1.84
			c0.613,0.613,1.227,1.227,2.453,1.227c0.613,0.615,1.227,1.229,2.455,1.229c0.613,0.613,1.84,0.613,2.453,1.227
			s1.84,0.613,2.455,1.227c0.613,0.613,1.84,0.613,2.453,1.227s1.84,0.613,2.453,1.229c0.615,0,1.842,0.613,2.455,0.613
			c1.84,0.613,3.066,1.227,4.908,1.227c3.68,0.613,7.975,1.227,12.27,1.227s8.59-0.613,12.27-1.227
			c1.842-0.613,3.068-0.613,4.908-1.227c0.613,0,1.84-0.613,2.455-0.613c0.613,0,1.84-0.615,2.453-1.229s1.84-0.613,2.453-1.227
			c0.615-0.613,1.842-0.613,2.455-1.227s1.84-0.613,2.453-1.227s1.229-0.613,2.455-1.229c0.613-0.613,1.227-1.227,2.453-1.227
			c0.613-0.613,1.227-1.227,2.455-1.84c0.613-0.613,1.227-1.227,1.84-1.84c0.613-0.615,1.227-1.229,2.453-1.842
			c0.613-0.613,1.229-1.227,1.842-1.84s1.84-1.84,2.453-2.455c0.613-0.613,0.613-0.613,1.227-1.227
			c1.229-1.227,2.455-2.453,3.068-4.295c0.613-0.613,0.613-1.227,1.227-1.84c0.613-1.227,1.227-1.84,1.84-3.066
			c0.615-0.615,0.615-1.229,1.229-1.842c0.613-1.227,1.227-1.84,1.227-3.066c0-0.613,0.613-1.229,0.613-1.842
			c0.613-1.227,0.613-1.84,1.227-3.066c0-0.613,0.613-1.227,0.613-2.455c0.613-1.227,0.613-2.453,0.613-3.066
			s0.615-1.227,0.615-1.842c0-1.227,0.613-2.453,0.613-3.68c0-0.613,0-1.227,0-1.842c0-1.84,0-3.68,0-5.521
			c0-32.514-26.381-59.508-59.51-59.508S440.491,1007.893,440.491,1040.407z"/>
		<path fill="#F26727" d="M423.499,2108.395c0,2.398,0,4.795,0,7.191c0,0.801,0,1.6,0,2.398c0,1.598,0.799,3.195,0.799,4.793
			c0,0.799,0.801,1.598,0.801,2.396c0,1.6,0.799,3.197,0.799,3.994c0,0.801,0.799,1.6,0.799,3.197
			c0.799,1.598,0.799,2.396,1.598,3.994c0,0.799,0.799,1.6,0.799,2.396c0.798,1.598,0.798,2.398,1.597,3.996
			c0.799,0.799,0.799,1.598,1.601,2.396c0.798,1.598,1.597,2.396,2.396,3.994c0.799,0.799,0.799,1.598,1.598,2.396
			c1.598,1.6,2.396,3.996,3.996,5.594c0.799,0.799,0.799,0.799,1.597,1.598c0.799,0.799,2.396,2.396,3.195,3.195
			c0.799,0.801,1.597,1.6,2.398,2.398c0.799,0.799,1.598,1.596,3.194,2.396c0.799,0.799,1.598,1.598,2.396,2.396
			s1.6,1.598,3.197,2.396c0.799,0.799,1.598,1.598,3.194,1.598c0.799,0.801,1.598,1.6,3.197,1.6
			c0.799,0.799,2.396,0.799,3.195,1.596c0.798,0.801,2.396,0.801,3.197,1.6c0.798,0.799,2.396,0.799,3.194,1.598
			s2.396,0.799,3.194,1.598c0.802,0,2.399,0.799,3.197,0.799c2.396,0.799,3.994,1.598,6.393,1.598
			c4.792,0.801,10.385,1.6,15.979,1.6s11.187-0.801,15.979-1.6c2.398-0.799,3.996-0.799,6.393-1.598
			c0.798,0,2.396-0.799,3.197-0.799c0.798,0,2.396-0.799,3.194-1.598s2.396-0.799,3.194-1.598c0.802-0.799,2.399-0.799,3.197-1.6
			c0.799-0.797,2.396-0.797,3.195-1.596s1.6-0.799,3.197-1.6c0.799-0.799,1.597-1.598,3.194-1.598
			c0.799-0.799,1.598-1.598,3.197-2.396c0.799-0.799,1.598-1.598,2.396-2.396c0.799-0.801,1.597-1.598,3.194-2.396
			c0.799-0.799,1.6-1.598,2.398-2.398c0.799-0.799,2.396-2.396,3.195-3.195c0.798-0.799,0.798-0.799,1.597-1.598
			c1.601-1.598,3.197-3.195,3.996-5.594c0.799-0.799,0.799-1.598,1.598-2.396c0.799-1.598,1.598-2.396,2.396-3.994
			c0.802-0.799,0.802-1.598,1.601-2.396c0.799-1.598,1.597-2.398,1.597-3.996c0-0.797,0.799-1.598,0.799-2.396
			c0.799-1.598,0.799-2.396,1.598-3.994c0-0.799,0.799-1.598,0.799-3.197c0.799-1.596,0.799-3.193,0.799-3.994
			c0-0.799,0.801-1.598,0.801-2.396c0-1.598,0.799-3.195,0.799-4.793c0-0.799,0-1.598,0-2.398c0-2.396,0-4.793,0-7.191
			c0-42.344-34.356-77.498-77.5-77.498S423.499,2066.052,423.499,2108.395z"/>
		<path fill="#FCB860" d="M441.49,2108.303c0,1.842,0,3.682,0,5.521c0,0.615,0,1.229,0,1.842c0,1.227,0.613,2.453,0.613,3.68
			c0,0.615,0.615,1.229,0.615,1.842c0,1.227,0.613,2.453,0.613,3.066c0,0.615,0.613,1.229,0.613,2.455
			c0.613,1.227,0.613,1.84,1.227,3.066c0,0.613,0.613,1.229,0.613,1.842c0.613,1.227,0.613,1.84,1.227,3.066
			c0.613,0.613,0.613,1.227,1.229,1.842c0.613,1.227,1.227,1.84,1.84,3.066c0.613,0.613,0.613,1.227,1.227,1.84
			c1.227,1.229,1.84,3.068,3.068,4.295c0.613,0.613,0.613,0.613,1.227,1.227c0.613,0.615,1.84,1.842,2.453,2.455
			s1.227,1.227,1.842,1.84c0.613,0.613,1.227,1.227,2.453,1.842c0.613,0.613,1.227,1.227,1.84,1.84s1.229,1.227,2.455,1.84
			c0.613,0.613,1.227,1.227,2.453,1.227c0.613,0.615,1.227,1.229,2.455,1.229c0.613,0.613,1.84,0.613,2.453,1.227
			s1.84,0.613,2.455,1.227c0.613,0.613,1.84,0.613,2.453,1.227s1.84,0.613,2.453,1.229c0.615,0,1.842,0.613,2.455,0.613
			c1.84,0.613,3.066,1.227,4.908,1.227c3.68,0.613,7.975,1.227,12.27,1.227s8.59-0.613,12.27-1.227
			c1.842-0.613,3.068-0.613,4.908-1.227c0.613,0,1.84-0.613,2.455-0.613c0.613,0,1.84-0.615,2.453-1.229s1.84-0.613,2.453-1.227
			c0.615-0.613,1.842-0.613,2.455-1.227s1.84-0.613,2.453-1.227s1.229-0.613,2.455-1.229c0.613-0.613,1.227-1.227,2.453-1.227
			c0.613-0.613,1.227-1.227,2.455-1.84c0.613-0.613,1.227-1.227,1.84-1.84c0.613-0.615,1.227-1.229,2.453-1.842
			c0.613-0.613,1.229-1.227,1.842-1.84s1.84-1.84,2.453-2.455c0.613-0.613,0.613-0.613,1.227-1.227
			c1.229-1.227,2.455-2.453,3.068-4.295c0.613-0.613,0.613-1.227,1.227-1.84c0.613-1.227,1.227-1.84,1.84-3.066
			c0.615-0.615,0.615-1.229,1.229-1.842c0.613-1.227,1.227-1.84,1.227-3.066c0-0.613,0.613-1.229,0.613-1.842
			c0.613-1.227,0.613-1.84,1.227-3.066c0-0.613,0.613-1.227,0.613-2.455c0.613-1.227,0.613-2.453,0.613-3.066
			s0.615-1.227,0.615-1.842c0-1.227,0.613-2.453,0.613-3.68c0-0.613,0-1.227,0-1.842c0-1.84,0-3.68,0-5.521
			c0-32.514-26.381-59.508-59.51-59.508S441.49,2075.79,441.49,2108.303z"/>
		<path fill="#F26727" d="M423.499,3371.298c0,2.398,0,4.795,0,7.191c0,0.801,0,1.6,0,2.398c0,1.598,0.799,3.195,0.799,4.793
			c0,0.799,0.801,1.598,0.801,2.396c0,1.6,0.799,3.197,0.799,3.994c0,0.801,0.799,1.6,0.799,3.197
			c0.799,1.598,0.799,2.396,1.598,3.994c0,0.799,0.799,1.6,0.799,2.396c0.798,1.598,0.798,2.398,1.597,3.996
			c0.799,0.799,0.799,1.598,1.601,2.396c0.798,1.598,1.597,2.396,2.396,3.994c0.799,0.799,0.799,1.598,1.598,2.396
			c1.598,1.6,2.396,3.996,3.996,5.594c0.799,0.799,0.799,0.799,1.597,1.598c0.799,0.799,2.396,2.396,3.195,3.195
			c0.799,0.801,1.597,1.6,2.398,2.398c0.799,0.799,1.598,1.596,3.194,2.396c0.799,0.799,1.598,1.598,2.396,2.396
			s1.6,1.598,3.197,2.396c0.799,0.799,1.598,1.598,3.194,1.598c0.799,0.801,1.598,1.6,3.197,1.6
			c0.799,0.799,2.396,0.799,3.195,1.596c0.798,0.801,2.396,0.801,3.197,1.6c0.798,0.799,2.396,0.799,3.194,1.598
			s2.396,0.799,3.194,1.598c0.802,0,2.399,0.799,3.197,0.799c2.396,0.799,3.994,1.598,6.393,1.598
			c4.792,0.801,10.385,1.6,15.979,1.6s11.187-0.801,15.979-1.6c2.398-0.799,3.996-0.799,6.393-1.598
			c0.798,0,2.396-0.799,3.197-0.799c0.798,0,2.396-0.799,3.194-1.598s2.396-0.799,3.194-1.598c0.802-0.799,2.399-0.799,3.197-1.6
			c0.799-0.797,2.396-0.797,3.195-1.596s1.6-0.799,3.197-1.6c0.799-0.799,1.597-1.598,3.194-1.598
			c0.799-0.799,1.598-1.598,3.197-2.396c0.799-0.799,1.598-1.598,2.396-2.396c0.799-0.801,1.597-1.598,3.194-2.396
			c0.799-0.799,1.6-1.598,2.398-2.398c0.799-0.799,2.396-2.396,3.195-3.195c0.798-0.799,0.798-0.799,1.597-1.598
			c1.601-1.598,3.197-3.195,3.996-5.594c0.799-0.799,0.799-1.598,1.598-2.396c0.799-1.598,1.598-2.396,2.396-3.994
			c0.802-0.799,0.802-1.598,1.601-2.396c0.799-1.598,1.597-2.398,1.597-3.996c0-0.797,0.799-1.598,0.799-2.396
			c0.799-1.598,0.799-2.396,1.598-3.994c0-0.799,0.799-1.598,0.799-3.197c0.799-1.596,0.799-3.193,0.799-3.994
			c0-0.799,0.801-1.598,0.801-2.396c0-1.598,0.799-3.195,0.799-4.793c0-0.799,0-1.598,0-2.398c0-2.396,0-4.793,0-7.191
			c0-42.344-34.356-77.498-77.5-77.498S423.499,3328.954,423.499,3371.298z"/>
		<path fill="#FCB860" d="M441.49,3371.206c0,1.842,0,3.682,0,5.521c0,0.615,0,1.229,0,1.842c0,1.227,0.613,2.453,0.613,3.68
			c0,0.615,0.615,1.229,0.615,1.842c0,1.227,0.613,2.453,0.613,3.066c0,0.615,0.613,1.229,0.613,2.455
			c0.613,1.227,0.613,1.84,1.227,3.066c0,0.613,0.613,1.229,0.613,1.842c0.613,1.227,0.613,1.84,1.227,3.066
			c0.613,0.613,0.613,1.227,1.229,1.842c0.613,1.227,1.227,1.84,1.84,3.066c0.613,0.613,0.613,1.227,1.227,1.84
			c1.227,1.229,1.84,3.068,3.068,4.295c0.613,0.613,0.613,0.613,1.227,1.227c0.613,0.615,1.84,1.842,2.453,2.455
			s1.227,1.227,1.842,1.84c0.613,0.613,1.227,1.227,2.453,1.842c0.613,0.613,1.227,1.227,1.84,1.84s1.229,1.227,2.455,1.84
			c0.613,0.613,1.227,1.227,2.453,1.227c0.613,0.615,1.227,1.229,2.455,1.229c0.613,0.613,1.84,0.613,2.453,1.227
			s1.84,0.613,2.455,1.227c0.613,0.613,1.84,0.613,2.453,1.227s1.84,0.613,2.453,1.229c0.615,0,1.842,0.613,2.455,0.613
			c1.84,0.613,3.066,1.227,4.908,1.227c3.68,0.613,7.975,1.227,12.27,1.227s8.59-0.613,12.27-1.227
			c1.842-0.613,3.068-0.613,4.908-1.227c0.613,0,1.84-0.613,2.455-0.613c0.613,0,1.84-0.615,2.453-1.229s1.84-0.613,2.453-1.227
			c0.615-0.613,1.842-0.613,2.455-1.227s1.84-0.613,2.453-1.227s1.229-0.613,2.455-1.229c0.613-0.613,1.227-1.227,2.453-1.227
			c0.613-0.613,1.227-1.227,2.455-1.84c0.613-0.613,1.227-1.227,1.84-1.84c0.613-0.615,1.227-1.229,2.453-1.842
			c0.613-0.613,1.229-1.227,1.842-1.84s1.84-1.84,2.453-2.455c0.613-0.613,0.613-0.613,1.227-1.227
			c1.229-1.227,2.455-2.453,3.068-4.295c0.613-0.613,0.613-1.227,1.227-1.84c0.613-1.227,1.227-1.84,1.84-3.066
			c0.615-0.615,0.615-1.229,1.229-1.842c0.613-1.227,1.227-1.84,1.227-3.066c0-0.613,0.613-1.229,0.613-1.842
			c0.613-1.227,0.613-1.84,1.227-3.066c0-0.613,0.613-1.227,0.613-2.455c0.613-1.227,0.613-2.453,0.613-3.066
			s0.615-1.227,0.615-1.842c0-1.227,0.613-2.453,0.613-3.68c0-0.613,0-1.227,0-1.842c0-1.84,0-3.68,0-5.521
			c0-32.514-26.381-59.508-59.51-59.508S441.49,3338.692,441.49,3371.206z"/>
	</g>
	<path fill="#F26727" d="M422.506-2370.503c0,2.397,0,4.795,0,7.191c0,0.8,0,1.599,0,2.397c0,1.599,0.799,3.196,0.799,4.793
		c0,0.8,0.801,1.599,0.801,2.397c0,1.599,0.799,3.196,0.799,3.995c0,0.8,0.799,1.599,0.799,3.196
		c0.799,1.599,0.799,2.397,1.598,3.995c0,0.798,0.799,1.599,0.799,2.397c0.798,1.598,0.798,2.397,1.597,3.995
		c0.799,0.798,0.799,1.597,1.601,2.397c0.798,1.598,1.597,2.396,2.396,3.995c0.799,0.799,0.799,1.598,1.598,2.396
		c1.598,1.599,2.396,3.996,3.996,5.593c0.799,0.798,0.799,0.798,1.597,1.597c0.799,0.8,2.396,2.397,3.195,3.196
		c0.799,0.8,1.597,1.599,2.398,2.397c0.799,0.799,1.598,1.597,3.194,2.397c0.799,0.798,1.598,1.597,2.396,2.396
		c0.799,0.8,1.6,1.599,3.197,2.397c0.799,0.798,1.598,1.597,3.194,1.597c0.799,0.8,1.598,1.599,3.197,1.599
		c0.799,0.799,2.396,0.799,3.195,1.597c0.798,0.8,2.396,0.8,3.197,1.599c0.798,0.799,2.396,0.799,3.194,1.598
		s2.396,0.799,3.194,1.599c0.802,0,2.399,0.799,3.197,0.799c2.396,0.798,3.994,1.597,6.393,1.597
		c4.792,0.8,10.385,1.599,15.979,1.599s11.187-0.8,15.979-1.599c2.398-0.799,3.996-0.799,6.393-1.597
		c0.798,0,2.396-0.799,3.197-0.799c0.798,0,2.396-0.8,3.194-1.599s2.396-0.799,3.194-1.598c0.802-0.798,2.399-0.798,3.197-1.599
		c0.799-0.798,2.396-0.798,3.195-1.597s1.6-0.799,3.197-1.599c0.799-0.799,1.597-1.597,3.194-1.597
		c0.799-0.799,1.598-1.598,3.197-2.397c0.799-0.799,1.598-1.598,2.396-2.396c0.799-0.8,1.597-1.599,3.194-2.397
		c0.799-0.798,1.6-1.597,2.398-2.397c0.799-0.799,2.396-2.396,3.195-3.196c0.798-0.799,0.798-0.799,1.597-1.597
		c1.601-1.598,3.197-3.196,3.996-5.593c0.799-0.799,0.799-1.598,1.598-2.396c0.799-1.599,1.598-2.397,2.396-3.995
		c0.802-0.8,0.802-1.599,1.601-2.397c0.799-1.598,1.597-2.397,1.597-3.995c0-0.798,0.799-1.599,0.799-2.397
		c0.799-1.597,0.799-2.396,1.598-3.995c0-0.799,0.799-1.598,0.799-3.196c0.799-1.597,0.799-3.194,0.799-3.995
		c0-0.798,0.801-1.597,0.801-2.397c0-1.598,0.799-3.195,0.799-4.793c0-0.799,0-1.597,0-2.397c0-2.396,0-4.793,0-7.191
		c0-42.344-34.356-77.499-77.5-77.499S422.506-2412.847,422.506-2370.503z"/>
	<path fill="#FCB860" d="M440.496-2370.595c0,1.841,0,3.682,0,5.521c0,0.614,0,1.228,0,1.841c0,1.228,0.613,2.454,0.613,3.681
		c0,0.614,0.615,1.228,0.615,1.841c0,1.228,0.613,2.454,0.613,3.067c0,0.614,0.613,1.228,0.613,2.454
		c0.613,1.228,0.613,1.841,1.227,3.067c0,0.613,0.613,1.228,0.613,1.841c0.613,1.227,0.613,1.841,1.227,3.067
		c0.613,0.613,0.613,1.227,1.229,1.841c0.613,1.227,1.227,1.84,1.84,3.067c0.613,0.613,0.613,1.227,1.227,1.84
		c1.227,1.228,1.84,3.068,3.068,4.295c0.613,0.613,0.613,0.613,1.227,1.227c0.613,0.614,1.84,1.841,2.453,2.454
		c0.613,0.614,1.227,1.228,1.842,1.841c0.613,0.613,1.227,1.227,2.453,1.841c0.613,0.613,1.227,1.227,1.84,1.84
		c0.613,0.614,1.229,1.228,2.455,1.841c0.613,0.613,1.227,1.227,2.453,1.227c0.613,0.614,1.227,1.228,2.455,1.228
		c0.613,0.613,1.84,0.613,2.453,1.227c0.613,0.614,1.84,0.614,2.455,1.228c0.613,0.613,1.84,0.613,2.453,1.227
		s1.84,0.613,2.453,1.228c0.615,0,1.842,0.613,2.455,0.613c1.84,0.613,3.066,1.227,4.908,1.227c3.68,0.614,7.975,1.228,12.27,1.228
		s8.59-0.614,12.27-1.228c1.842-0.613,3.068-0.613,4.908-1.227c0.613,0,1.84-0.613,2.455-0.613c0.613,0,1.84-0.614,2.453-1.228
		s1.84-0.613,2.453-1.227c0.615-0.613,1.842-0.613,2.455-1.228c0.613-0.613,1.84-0.613,2.453-1.227s1.229-0.613,2.455-1.228
		c0.613-0.613,1.227-1.227,2.453-1.227c0.613-0.613,1.227-1.227,2.455-1.841c0.613-0.613,1.227-1.227,1.84-1.84
		c0.613-0.614,1.227-1.228,2.453-1.841c0.613-0.613,1.229-1.227,1.842-1.841c0.613-0.613,1.84-1.84,2.453-2.454
		c0.613-0.613,0.613-0.613,1.227-1.227c1.229-1.227,2.455-2.454,3.068-4.295c0.613-0.613,0.613-1.227,1.227-1.84
		c0.613-1.228,1.227-1.841,1.84-3.067c0.615-0.614,0.615-1.228,1.229-1.841c0.613-1.227,1.227-1.841,1.227-3.067
		c0-0.613,0.613-1.228,0.613-1.841c0.613-1.227,0.613-1.84,1.227-3.067c0-0.613,0.613-1.227,0.613-2.454
		c0.613-1.227,0.613-2.453,0.613-3.067c0-0.613,0.615-1.227,0.615-1.841c0-1.227,0.613-2.453,0.613-3.681c0-0.613,0-1.227,0-1.841
		c0-1.84,0-3.681,0-5.521c0-32.515-26.381-59.509-59.51-59.509S440.496-2403.11,440.496-2370.595z"/>
	<path fill="#F26727" d="M422.506-561.598c0,2.397,0,4.795,0,7.191c0,0.8,0,1.599,0,2.397c0,1.599,0.799,3.196,0.799,4.793
		c0,0.8,0.801,1.599,0.801,2.397c0,1.599,0.799,3.196,0.799,3.995c0,0.8,0.799,1.599,0.799,3.196
		c0.799,1.599,0.799,2.397,1.598,3.995c0,0.798,0.799,1.599,0.799,2.397c0.798,1.598,0.798,2.397,1.597,3.995
		c0.799,0.798,0.799,1.597,1.601,2.397c0.798,1.598,1.597,2.396,2.396,3.995c0.799,0.799,0.799,1.598,1.598,2.396
		c1.598,1.599,2.396,3.996,3.996,5.593c0.799,0.798,0.799,0.798,1.597,1.597c0.799,0.8,2.396,2.397,3.195,3.196
		c0.799,0.8,1.597,1.599,2.398,2.397c0.799,0.799,1.598,1.597,3.194,2.397c0.799,0.798,1.598,1.597,2.396,2.396
		c0.799,0.8,1.6,1.599,3.197,2.397c0.799,0.798,1.598,1.597,3.194,1.597c0.799,0.8,1.598,1.599,3.197,1.599
		c0.799,0.799,2.396,0.799,3.195,1.597c0.798,0.8,2.396,0.8,3.197,1.599c0.798,0.799,2.396,0.799,3.194,1.598
		s2.396,0.799,3.194,1.599c0.802,0,2.399,0.799,3.197,0.799c2.396,0.798,3.994,1.597,6.393,1.597
		c4.792,0.8,10.385,1.599,15.979,1.599s11.187-0.8,15.979-1.599c2.398-0.799,3.996-0.799,6.393-1.597
		c0.798,0,2.396-0.799,3.197-0.799c0.798,0,2.396-0.8,3.194-1.599s2.396-0.799,3.194-1.598c0.802-0.798,2.399-0.798,3.197-1.599
		c0.799-0.798,2.396-0.798,3.195-1.597s1.6-0.799,3.197-1.599c0.799-0.799,1.597-1.597,3.194-1.597
		c0.799-0.799,1.598-1.598,3.197-2.397c0.799-0.799,1.598-1.598,2.396-2.396c0.799-0.8,1.597-1.599,3.194-2.397
		c0.799-0.798,1.6-1.597,2.398-2.397c0.799-0.799,2.396-2.396,3.195-3.196c0.798-0.799,0.798-0.799,1.597-1.597
		c1.601-1.598,3.197-3.196,3.996-5.593c0.799-0.799,0.799-1.598,1.598-2.396c0.799-1.599,1.598-2.397,2.396-3.995
		c0.802-0.8,0.802-1.599,1.601-2.397c0.799-1.598,1.597-2.397,1.597-3.995c0-0.798,0.799-1.599,0.799-2.397
		c0.799-1.597,0.799-2.396,1.598-3.995c0-0.799,0.799-1.598,0.799-3.196c0.799-1.597,0.799-3.194,0.799-3.995
		c0-0.798,0.801-1.597,0.801-2.397c0-1.598,0.799-3.195,0.799-4.793c0-0.799,0-1.597,0-2.397c0-2.396,0-4.793,0-7.191
		c0-42.344-34.356-77.499-77.5-77.499S422.506-603.942,422.506-561.598z"/>
	<path fill="#FCB860" d="M440.496-561.691c0,1.841,0,3.682,0,5.521c0,0.614,0,1.228,0,1.841c0,1.228,0.613,2.454,0.613,3.681
		c0,0.614,0.615,1.228,0.615,1.841c0,1.228,0.613,2.454,0.613,3.067c0,0.614,0.613,1.228,0.613,2.454
		c0.613,1.228,0.613,1.841,1.227,3.067c0,0.613,0.613,1.228,0.613,1.841c0.613,1.227,0.613,1.841,1.227,3.067
		c0.613,0.613,0.613,1.227,1.229,1.841c0.613,1.227,1.227,1.84,1.84,3.067c0.613,0.613,0.613,1.227,1.227,1.84
		c1.227,1.228,1.84,3.068,3.068,4.295c0.613,0.613,0.613,0.613,1.227,1.227c0.613,0.614,1.84,1.841,2.453,2.454
		c0.613,0.614,1.227,1.228,1.842,1.841c0.613,0.613,1.227,1.227,2.453,1.841c0.613,0.613,1.227,1.227,1.84,1.84
		c0.613,0.614,1.229,1.228,2.455,1.841c0.613,0.613,1.227,1.227,2.453,1.227c0.613,0.614,1.227,1.228,2.455,1.228
		c0.613,0.613,1.84,0.613,2.453,1.227c0.613,0.614,1.84,0.614,2.455,1.228c0.613,0.613,1.84,0.613,2.453,1.227
		s1.84,0.613,2.453,1.228c0.615,0,1.842,0.613,2.455,0.613c1.84,0.613,3.066,1.227,4.908,1.227c3.68,0.614,7.975,1.228,12.27,1.228
		s8.59-0.614,12.27-1.228c1.842-0.613,3.068-0.613,4.908-1.227c0.613,0,1.84-0.613,2.455-0.613c0.613,0,1.84-0.614,2.453-1.228
		s1.84-0.613,2.453-1.227c0.615-0.613,1.842-0.613,2.455-1.228c0.613-0.613,1.84-0.613,2.453-1.227s1.229-0.613,2.455-1.228
		c0.613-0.613,1.227-1.227,2.453-1.227c0.613-0.613,1.227-1.227,2.455-1.841c0.613-0.613,1.227-1.227,1.84-1.84
		c0.613-0.614,1.227-1.228,2.453-1.841c0.613-0.613,1.229-1.227,1.842-1.841c0.613-0.613,1.84-1.84,2.453-2.454
		c0.613-0.613,0.613-0.613,1.227-1.227c1.229-1.227,2.455-2.454,3.068-4.295c0.613-0.613,0.613-1.227,1.227-1.84
		c0.613-1.228,1.227-1.841,1.84-3.067c0.615-0.614,0.615-1.228,1.229-1.841c0.613-1.227,1.227-1.841,1.227-3.067
		c0-0.613,0.613-1.228,0.613-1.841c0.613-1.227,0.613-1.84,1.227-3.067c0-0.613,0.613-1.227,0.613-2.454
		c0.613-1.227,0.613-2.453,0.613-3.067c0-0.613,0.615-1.227,0.615-1.841c0-1.227,0.613-2.453,0.613-3.681c0-0.613,0-1.227,0-1.841
		c0-1.84,0-3.681,0-5.521c0-32.515-26.381-59.509-59.51-59.509S440.496-594.205,440.496-561.691z"/>
</g>
</svg>
